<?xml version="1.0" encoding="utf-8"?>
<!-- Generator: Adobe Illustrator 16.0.0, SVG Export Plug-In . SVG Version: 6.00 Build 0)  -->
<!DOCTYPE svg PUBLIC "-//W3C//DTD SVG 1.1//EN" "http://www.w3.org/Graphics/SVG/1.1/DTD/svg11.dtd">
<svg version="1.1" id="Layer_1" xmlns="http://www.w3.org/2000/svg" xmlns:xlink="http://www.w3.org/1999/xlink" x="0px" y="0px"
	 width="100px" height="100px" viewBox="0 0 100 100" enable-background="new 0 0 100 100" xml:space="preserve">
<g opacity="0.2">
	<g>
		<path d="M98.616,44.681c0-16.066-13.024-29.091-29.091-29.091c-16.067,0-29.09,13.025-29.09,29.091
			c0,2.914,0.434,5.727,1.23,8.381c7.493-0.233,14.832,0.86,14.832,0.86c-0.236-2.624,0-6.963,0-6.963s0.836-16.106,15.833-11.723
			c2.587,0.818,3.561,1.659,5.893,6.199c0,0,4.266,0.798,4.848,5.34c0,0,0.369,2.884,7.979,5.677c0,0,1.812,2.179-6.536,0.736
			c0,0-6.383-2.455-9.297-1.074c-2.916,1.382-2.73,2.67,0.645,5.369c3.375,2.701,3.771,4.414,3.834,4.759
			c0.695,3.602-0.026,7.065-1.426,10.188C90.061,68.721,98.616,57.7,98.616,44.681z"/>
	</g>
</g>
<g opacity="0.2">
	<path d="M12.072,64.666c0,0,0.705-0.475,1.938-1.309c0.626-0.405,1.342-0.955,2.264-1.452c0.908-0.521,1.931-1.109,3.048-1.75
		c1.153-0.571,2.404-1.19,3.727-1.845c1.362-0.564,2.8-1.176,4.312-1.742c0.765-0.256,1.545-0.517,2.333-0.778
		c0.788-0.267,1.587-0.542,2.413-0.737c1.645-0.424,3.308-0.918,5.015-1.201c0.849-0.17,1.699-0.338,2.546-0.508
		c0.855-0.119,1.707-0.236,2.552-0.354c0.424-0.061,0.847-0.118,1.266-0.178l0.628-0.086l0.079-0.01l0.04-0.005l0.095-0.006
		l0.154-0.009l0.308-0.018c0.819-0.054,1.628-0.078,2.425-0.109c0.797-0.006,1.575-0.049,2.35-0.021
		c0.792,0.06,1.566,0.121,2.319,0.202c0.75,0.076,1.479,0.146,2.185,0.221c0.709,0.063,1.365,0.245,2.007,0.358
		c1.276,0.255,2.438,0.528,3.459,0.771c1.012,0.313,1.883,0.615,2.595,0.871c1.424,0.51,2.215,0.85,2.215,0.85l-0.07,0.291
		c0,0-0.875,0-2.361-0.092c-0.745-0.037-1.641-0.114-2.662-0.196c-1.032-0.023-2.189-0.048-3.441-0.116
		c-1.254-0.102-2.599-0.052-4.01-0.066c-0.708,0.004-1.431-0.01-2.171-0.033c-0.764,0.024-1.544,0.051-2.339,0.074
		c-0.797,0.006-1.607,0.021-2.428,0.004l-0.308-0.002l-0.154-0.002h-0.02c-0.019,0,0.094-0.004,0.037-0.002l-0.037,0.002
		l-0.075,0.006l-0.606,0.031c-0.405,0.02-0.813,0.037-1.223,0.06c-0.817,0.038-1.646,0.069-2.476,0.129
		c-0.825,0.101-1.652,0.2-2.48,0.302c-1.667,0.163-3.296,0.536-4.917,0.839c-0.813,0.138-1.603,0.353-2.384,0.56
		c-0.783,0.207-1.557,0.408-2.317,0.607c-1.507,0.447-2.938,0.973-4.32,1.401c-1.347,0.53-2.62,1.03-3.797,1.496
		c-1.145,0.532-2.193,1.022-3.122,1.456c-0.943,0.414-1.715,0.9-2.377,1.238c-1.31,0.707-2.058,1.112-2.058,1.112L12.072,64.666z"/>
</g>
<path opacity="0.2" d="M12.117,64.977c0,0-0.712-1.36-1.721-3.427c-0.51-1.03-1.108-2.229-1.72-3.528
	c-0.629-1.291-1.257-2.684-1.898-4.07c-0.627-1.396-1.41-2.729-1.939-4.058C4.328,48.555,4,47.251,3.775,46.111
	c-0.213-1.143-0.339-2.117-0.368-2.82c-0.041-0.699-0.014-1.118-0.014-1.118l0.279-0.106c0,0,0.3,0.293,0.735,0.841
	c0.449,0.543,1.004,1.352,1.609,2.346c0.593,0.999,1.219,2.188,1.73,3.525c0.493,1.343,0.801,2.858,1.264,4.314
	c0.45,1.462,0.912,2.919,1.305,4.3c0.41,1.375,0.767,2.668,1.075,3.775c0.627,2.211,1.005,3.7,1.005,3.7L12.117,64.977z"/>
<g opacity="0.2">
	<path d="M12.687,79.133c0.513,0,0.978,0.079,1.391,0.238c0.414,0.16,0.768,0.39,1.061,0.689c0.293,0.301,0.519,0.67,0.679,1.107
		c0.159,0.438,0.238,0.936,0.238,1.488c0,0.605-0.088,1.141-0.266,1.605c-0.177,0.467-0.429,0.857-0.756,1.174
		c-0.326,0.316-0.72,0.56-1.179,0.725c-0.46,0.166-0.974,0.248-1.539,0.248c-0.514,0-0.979-0.082-1.395-0.248
		c-0.417-0.166-0.771-0.401-1.065-0.708c-0.292-0.308-0.517-0.683-0.674-1.124c-0.158-0.439-0.237-0.939-0.237-1.5
		c0-0.602,0.089-1.135,0.266-1.596c0.178-0.463,0.429-0.85,0.756-1.158c0.327-0.313,0.719-0.547,1.181-0.706
		C11.608,79.212,12.121,79.133,12.687,79.133z M12.388,79.635c-0.39,0-0.726,0.079-1.004,0.238c-0.279,0.16-0.507,0.374-0.684,0.641
		c-0.178,0.268-0.308,0.573-0.391,0.92c-0.085,0.348-0.126,0.707-0.126,1.082c0,0.418,0.044,0.83,0.135,1.235
		c0.089,0.407,0.231,0.769,0.426,1.087c0.196,0.319,0.448,0.577,0.759,0.773c0.311,0.199,0.687,0.297,1.124,0.297
		c0.39,0,0.724-0.082,1.002-0.249c0.279-0.165,0.509-0.384,0.685-0.657c0.177-0.271,0.309-0.585,0.392-0.938
		c0.085-0.354,0.126-0.717,0.126-1.092c0-0.418-0.045-0.828-0.135-1.229c-0.089-0.401-0.232-0.758-0.428-1.07
		c-0.194-0.313-0.448-0.563-0.758-0.755C13.2,79.73,12.825,79.635,12.388,79.635z"/>
	<path d="M21.009,79.395c0.175-0.035,0.349-0.064,0.519-0.092c0.171-0.025,0.329-0.047,0.469-0.066
		c0.142-0.018,0.261-0.029,0.359-0.041c0.098-0.01,0.161-0.014,0.188-0.014c0.06,0,0.105,0.018,0.135,0.049
		c0.03,0.035,0.064,0.086,0.105,0.153l1.41,2.39l1.451-2.289c0-0.002,0.001-0.004,0.004-0.004c0.001,0,0.002-0.004,0.002-0.006
		c0.031-0.043,0.06-0.078,0.086-0.103c0.026-0.022,0.067-0.044,0.123-0.06c0.055-0.017,0.115-0.027,0.179-0.037
		c0.063-0.006,0.126-0.016,0.186-0.021c0.059-0.006,0.114-0.011,0.164-0.013c0.05-0.001,0.089-0.003,0.117-0.003
		c0.076,0,0.114,0.024,0.114,0.077c0,0.035-0.011,0.067-0.037,0.097l-2.037,2.958l2.181,3.688c0.016,0.018,0.024,0.041,0.024,0.072
		c0,0.063-0.041,0.102-0.119,0.113c-0.069,0.012-0.149,0.021-0.243,0.031c-0.094,0.012-0.186,0.02-0.277,0.024
		c-0.092,0.007-0.175,0.011-0.251,0.013c-0.076,0.002-0.13,0.002-0.162,0.002c-0.067,0-0.121-0.03-0.161-0.096l-1.733-2.922
		l-1.727,2.76c-0.028,0.045-0.057,0.082-0.087,0.108c-0.03,0.028-0.072,0.05-0.128,0.065c-0.056,0.017-0.116,0.027-0.181,0.039
		c-0.065,0.01-0.13,0.017-0.191,0.021c-0.063,0.003-0.12,0.006-0.17,0.008c-0.053,0.002-0.092,0.003-0.121,0.003
		c-0.075,0-0.114-0.025-0.114-0.076c0-0.033,0.012-0.063,0.037-0.097l2.324-3.437l-1.518-2.563c-0.104-0.17-0.202-0.284-0.295-0.343
		c-0.093-0.059-0.204-0.086-0.331-0.086c-0.041,0-0.082,0.002-0.123,0.006c-0.042,0.003-0.087,0.01-0.134,0.018L21.009,79.395z"/>
	<path d="M33.17,79.182c0.058,0,0.106,0.019,0.143,0.053c0.035,0.035,0.072,0.086,0.106,0.154l1.697,3.047l1.447-2.944
		c0.024-0.048,0.05-0.085,0.078-0.113c0.028-0.026,0.068-0.05,0.125-0.063c0.056-0.018,0.115-0.028,0.18-0.037
		c0.063-0.008,0.124-0.017,0.184-0.021c0.06-0.006,0.115-0.011,0.165-0.013c0.05-0.001,0.089-0.003,0.116-0.003
		c0.072,0,0.107,0.023,0.107,0.07c0,0.017-0.003,0.031-0.012,0.047c-0.007,0.019-0.016,0.035-0.023,0.056l-2.146,3.598v3.065
		c0,0.096-0.047,0.15-0.144,0.167c-0.067,0.012-0.142,0.022-0.223,0.032c-0.081,0.011-0.162,0.019-0.239,0.023
		c-0.078,0.006-0.149,0.012-0.215,0.012c-0.065,0.002-0.115,0.004-0.147,0.004c-0.095,0-0.144-0.051-0.144-0.148v-3.047
		l-1.655-2.952c-0.1-0.181-0.193-0.306-0.281-0.374s-0.196-0.104-0.323-0.104c-0.032,0-0.069,0.002-0.107,0.01
		c-0.04,0.005-0.086,0.012-0.137,0.02l-0.037-0.328c0.175-0.037,0.345-0.065,0.511-0.093c0.167-0.026,0.317-0.048,0.451-0.065
		c0.136-0.019,0.25-0.029,0.342-0.039C33.081,79.184,33.141,79.182,33.17,79.182z"/>
	<path d="M44.62,79.796c-0.259,0-0.473,0.007-0.643,0.021c-0.169,0.017-0.31,0.062-0.421,0.14c-0.111,0.077-0.204,0.2-0.278,0.367
		c-0.073,0.167-0.145,0.401-0.212,0.704l-0.299-0.029c0-0.016,0.001-0.061,0.002-0.132c0.003-0.071,0.006-0.157,0.012-0.257
		c0.005-0.101,0.013-0.209,0.019-0.328c0.006-0.12,0.012-0.237,0.021-0.35c0.007-0.115,0.016-0.22,0.023-0.316
		c0.009-0.1,0.016-0.176,0.025-0.229c0.003-0.06,0.04-0.09,0.107-0.09c0.363,0.009,0.709,0.015,1.041,0.021
		c0.33,0.004,0.635,0.004,0.914,0.004h1.99c0.279,0,0.585,0,0.919-0.004c0.336-0.004,0.684-0.01,1.047-0.021
		c0.056,0,0.087,0.03,0.095,0.09c0.009,0.056,0.015,0.134,0.021,0.229c0.006,0.098,0.012,0.201,0.018,0.316
		c0.006,0.111,0.01,0.229,0.014,0.35c0.005,0.119,0.008,0.229,0.009,0.328c0.003,0.101,0.004,0.187,0.006,0.257
		c0.003,0.071,0.003,0.116,0.003,0.132l-0.298,0.029c-0.068-0.303-0.137-0.537-0.207-0.704c-0.068-0.167-0.158-0.29-0.266-0.367
		c-0.106-0.078-0.244-0.124-0.408-0.14c-0.165-0.014-0.379-0.021-0.643-0.021h-0.765v6.28c0,0.096-0.048,0.15-0.143,0.167
		c-0.068,0.012-0.143,0.022-0.225,0.032c-0.082,0.011-0.16,0.019-0.24,0.023c-0.077,0.008-0.148,0.012-0.214,0.014
		c-0.065,0.002-0.114,0.002-0.146,0.002c-0.096,0-0.143-0.049-0.143-0.148v-6.37H44.62z"/>
	<path d="M57.846,79.133c0.514,0,0.979,0.079,1.391,0.238c0.416,0.16,0.771,0.39,1.063,0.689c0.293,0.301,0.519,0.67,0.681,1.107
		c0.156,0.438,0.236,0.936,0.236,1.488c0,0.605-0.087,1.141-0.266,1.605c-0.178,0.467-0.432,0.857-0.758,1.174
		c-0.324,0.316-0.719,0.56-1.18,0.725c-0.459,0.166-0.974,0.248-1.539,0.248c-0.514,0-0.979-0.082-1.396-0.248
		c-0.416-0.166-0.771-0.401-1.063-0.708c-0.291-0.308-0.518-0.683-0.675-1.124c-0.157-0.439-0.237-0.939-0.237-1.5
		c0-0.602,0.09-1.135,0.268-1.596c0.178-0.463,0.429-0.85,0.756-1.158c0.327-0.313,0.721-0.547,1.182-0.706
		C56.768,79.212,57.279,79.133,57.846,79.133z M57.547,79.635c-0.39,0-0.727,0.079-1.004,0.238c-0.279,0.16-0.506,0.374-0.684,0.641
		c-0.178,0.268-0.309,0.573-0.393,0.92c-0.084,0.348-0.125,0.707-0.125,1.082c0,0.418,0.043,0.83,0.135,1.235
		c0.09,0.407,0.231,0.769,0.428,1.087c0.195,0.319,0.447,0.577,0.759,0.773c0.312,0.199,0.687,0.297,1.124,0.297
		c0.39,0,0.725-0.082,1.003-0.249c0.278-0.165,0.508-0.384,0.685-0.657c0.178-0.271,0.31-0.585,0.393-0.938
		c0.084-0.354,0.125-0.717,0.125-1.092c0-0.418-0.047-0.828-0.135-1.229c-0.09-0.401-0.231-0.758-0.428-1.07
		c-0.195-0.313-0.449-0.563-0.759-0.755C58.359,79.73,57.984,79.635,57.547,79.635z"/>
	<path d="M68.598,84.057c-0.004,0.297,0.033,0.549,0.112,0.754c0.081,0.207,0.19,0.371,0.336,0.498c0.144,0.125,0.31,0.215,0.5,0.27
		c0.19,0.054,0.399,0.081,0.622,0.081c0.288,0,0.568-0.048,0.846-0.138c0.276-0.092,0.553-0.205,0.826-0.342V79.48
		c0-0.092,0.049-0.148,0.145-0.168c0.063-0.014,0.138-0.021,0.22-0.029s0.162-0.016,0.241-0.021c0.078-0.005,0.15-0.011,0.218-0.014
		c0.065-0.004,0.114-0.007,0.146-0.007c0.096,0,0.146,0.05,0.146,0.149v6.687c0,0.096-0.05,0.151-0.146,0.167
		c-0.065,0.012-0.141,0.023-0.218,0.033s-0.153,0.018-0.228,0.022c-0.073,0.007-0.141,0.013-0.2,0.013
		c-0.06,0.002-0.104,0.004-0.138,0.004c-0.092,0-0.14-0.051-0.144-0.149l-0.043-0.49c-0.374,0.207-0.769,0.38-1.179,0.519
		c-0.413,0.138-0.829,0.205-1.252,0.205c-0.264,0-0.512-0.034-0.746-0.105c-0.235-0.07-0.438-0.184-0.613-0.33
		c-0.173-0.146-0.313-0.335-0.41-0.563c-0.104-0.229-0.154-0.5-0.154-0.813v-4.34c0-0.111-0.01-0.203-0.031-0.271
		s-0.055-0.125-0.096-0.164c-0.041-0.041-0.092-0.066-0.149-0.084c-0.06-0.017-0.123-0.022-0.194-0.022
		c-0.08,0-0.166,0.006-0.263,0.019l-0.036-0.328c0.217-0.039,0.419-0.074,0.613-0.104c0.191-0.025,0.363-0.049,0.514-0.064
		c0.148-0.017,0.273-0.026,0.374-0.035c0.099-0.008,0.164-0.012,0.191-0.012c0.126,0,0.19,0.063,0.19,0.188V84.057L68.598,84.057z"
		/>
	<path d="M81.193,82.652c0.308-0.021,0.58-0.063,0.813-0.131c0.235-0.068,0.432-0.166,0.59-0.297
		c0.156-0.129,0.276-0.293,0.357-0.492c0.08-0.199,0.121-0.44,0.121-0.725c0-0.234-0.043-0.439-0.133-0.615
		c-0.088-0.176-0.207-0.319-0.361-0.434c-0.156-0.113-0.339-0.198-0.553-0.254c-0.211-0.057-0.438-0.084-0.68-0.084
		c-0.16,0-0.279,0.013-0.357,0.04c-0.081,0.024-0.12,0.098-0.12,0.217v6.197c0,0.096-0.048,0.149-0.144,0.167
		c-0.068,0.012-0.144,0.021-0.226,0.031c-0.082,0.012-0.161,0.02-0.237,0.024c-0.08,0.007-0.149,0.011-0.218,0.013
		c-0.065,0.002-0.114,0.002-0.146,0.002c-0.096,0-0.145-0.049-0.145-0.147v-5.994c0-0.196-0.044-0.331-0.132-0.396
		c-0.087-0.065-0.201-0.1-0.341-0.1c-0.079,0-0.167,0.008-0.264,0.02l-0.035-0.329c0.396-0.067,0.813-0.124,1.24-0.171
		c0.426-0.045,0.864-0.067,1.313-0.067c0.189,0,0.393,0.008,0.604,0.024c0.213,0.015,0.418,0.045,0.623,0.089
		c0.202,0.044,0.396,0.104,0.579,0.182c0.183,0.078,0.345,0.181,0.48,0.306s0.247,0.276,0.327,0.455
		c0.082,0.176,0.123,0.387,0.123,0.629c0,0.258-0.039,0.487-0.115,0.687c-0.077,0.196-0.186,0.371-0.323,0.521
		c-0.137,0.152-0.297,0.281-0.479,0.391c-0.184,0.109-0.381,0.197-0.59,0.273v0.035c0.098,0.021,0.207,0.053,0.32,0.094
		c0.116,0.041,0.229,0.102,0.337,0.18c0.109,0.076,0.213,0.176,0.306,0.296c0.095,0.12,0.168,0.267,0.225,0.44l0.441,1.369
		c0.061,0.188,0.114,0.336,0.166,0.447c0.049,0.111,0.102,0.196,0.156,0.253c0.057,0.058,0.12,0.097,0.191,0.114
		c0.07,0.018,0.162,0.027,0.269,0.027l0.019,0.31c-0.075,0.017-0.158,0.032-0.248,0.045c-0.09,0.015-0.178,0.024-0.266,0.033
		c-0.089,0.008-0.166,0.015-0.236,0.021s-0.123,0.01-0.159,0.01c-0.127,0-0.241-0.016-0.341-0.045
		c-0.098-0.029-0.189-0.082-0.269-0.154c-0.081-0.073-0.149-0.172-0.213-0.292c-0.063-0.122-0.118-0.274-0.171-0.457l-0.424-1.458
		c-0.061-0.207-0.133-0.372-0.215-0.496c-0.084-0.123-0.188-0.219-0.314-0.284c-0.125-0.063-0.275-0.108-0.454-0.131
		c-0.177-0.021-0.392-0.037-0.643-0.044L81.193,82.652z"/>
	<path d="M94.473,80.938c-0.041-0.22-0.104-0.406-0.195-0.563c-0.088-0.157-0.198-0.288-0.329-0.392
		c-0.132-0.104-0.281-0.182-0.445-0.23c-0.165-0.05-0.344-0.074-0.536-0.074c-0.188,0-0.365,0.022-0.537,0.068
		c-0.171,0.046-0.322,0.119-0.453,0.219c-0.133,0.1-0.236,0.229-0.314,0.383c-0.077,0.154-0.117,0.34-0.117,0.555
		c0,0.19,0.046,0.354,0.137,0.494c0.092,0.137,0.215,0.256,0.368,0.357s0.33,0.192,0.529,0.271c0.2,0.082,0.407,0.16,0.622,0.24
		c0.238,0.092,0.479,0.19,0.717,0.297c0.24,0.104,0.454,0.232,0.643,0.385c0.189,0.152,0.344,0.335,0.461,0.55
		s0.177,0.479,0.177,0.794c0,0.275-0.038,0.518-0.116,0.729c-0.077,0.211-0.186,0.396-0.323,0.554
		c-0.137,0.157-0.298,0.288-0.479,0.397c-0.186,0.106-0.381,0.193-0.592,0.26c-0.211,0.064-0.433,0.111-0.66,0.141
		c-0.229,0.027-0.455,0.042-0.678,0.042c-0.268,0-0.533-0.017-0.799-0.049c-0.264-0.031-0.527-0.077-0.792-0.138
		c-0.036-0.008-0.063-0.023-0.085-0.051c-0.021-0.025-0.035-0.053-0.04-0.08c-0.009-0.084-0.016-0.207-0.022-0.367
		c-0.008-0.162-0.018-0.326-0.021-0.494c-0.006-0.168-0.01-0.317-0.016-0.454c-0.004-0.136-0.006-0.216-0.006-0.238l0.299-0.03
		c0.029,0.24,0.092,0.446,0.188,0.621c0.098,0.178,0.223,0.319,0.369,0.434c0.149,0.113,0.322,0.197,0.516,0.252
		c0.192,0.054,0.399,0.08,0.625,0.08c0.199,0,0.393-0.022,0.58-0.068c0.187-0.045,0.353-0.12,0.498-0.221
		c0.146-0.103,0.262-0.232,0.35-0.393c0.087-0.158,0.133-0.353,0.133-0.58c0-0.188-0.047-0.347-0.139-0.478
		c-0.09-0.132-0.213-0.248-0.366-0.351c-0.153-0.102-0.33-0.191-0.527-0.271c-0.196-0.081-0.401-0.161-0.61-0.246
		c-0.239-0.097-0.479-0.196-0.717-0.31c-0.24-0.107-0.455-0.24-0.644-0.396c-0.19-0.153-0.343-0.344-0.461-0.563
		c-0.117-0.224-0.175-0.494-0.175-0.815c0-0.39,0.076-0.718,0.229-0.979c0.153-0.263,0.354-0.474,0.604-0.635
		c0.248-0.158,0.531-0.271,0.851-0.34c0.315-0.068,0.642-0.102,0.972-0.102c0.219,0,0.457,0.017,0.717,0.051
		c0.26,0.033,0.502,0.078,0.729,0.134c0.035,0.009,0.063,0.024,0.085,0.052c0.021,0.025,0.035,0.053,0.04,0.08
		c0.009,0.083,0.019,0.201,0.022,0.35c0.007,0.149,0.017,0.304,0.022,0.455c0.009,0.153,0.015,0.291,0.021,0.416
		c0.002,0.123,0.007,0.196,0.007,0.222L94.473,80.938z"/>
</g>
<g>
	<g>
		<path fill="#FFFFFF" d="M97.616,43.681c0-16.066-13.024-29.091-29.091-29.091c-16.067,0-29.09,13.025-29.09,29.091
			c0,2.914,0.434,5.727,1.23,8.381c7.493-0.233,14.832,0.86,14.832,0.86c-0.236-2.624,0-6.963,0-6.963s0.836-16.106,15.833-11.723
			c2.587,0.818,3.561,1.659,5.893,6.199c0,0,4.266,0.798,4.848,5.34c0,0,0.369,2.884,7.979,5.677c0,0,1.812,2.179-6.536,0.736
			c0,0-6.383-2.456-9.297-1.074c-2.916,1.382-2.73,2.67,0.645,5.369c3.375,2.701,3.771,4.414,3.834,4.759
			c0.695,3.602-0.026,7.065-1.426,10.188C89.061,67.721,97.616,56.7,97.616,43.681z"/>
	</g>
</g>
<g>
	<path fill="#FFFFFF" d="M11.072,63.666c0,0,0.705-0.475,1.938-1.309c0.626-0.405,1.342-0.955,2.264-1.452
		c0.908-0.521,1.931-1.109,3.048-1.75c1.153-0.571,2.404-1.19,3.727-1.845c1.362-0.564,2.8-1.176,4.312-1.742
		c0.765-0.256,1.545-0.517,2.333-0.778c0.788-0.267,1.587-0.542,2.413-0.737c1.645-0.424,3.308-0.918,5.015-1.201
		c0.849-0.17,1.699-0.338,2.546-0.508c0.855-0.119,1.707-0.236,2.552-0.354c0.424-0.061,0.847-0.118,1.266-0.178l0.628-0.086
		l0.079-0.01l0.04-0.005l0.095-0.006l0.154-0.009l0.308-0.018c0.819-0.054,1.628-0.078,2.425-0.109
		c0.797-0.006,1.575-0.049,2.35-0.021c0.792,0.06,1.566,0.121,2.319,0.202c0.75,0.076,1.479,0.146,2.185,0.221
		c0.709,0.063,1.365,0.245,2.007,0.358c1.276,0.255,2.438,0.528,3.459,0.771c1.012,0.313,1.883,0.615,2.595,0.871
		c1.424,0.51,2.215,0.85,2.215,0.85l-0.07,0.291c0,0-0.875,0-2.361-0.092c-0.745-0.037-1.641-0.114-2.662-0.196
		c-1.032-0.023-2.189-0.048-3.441-0.116c-1.254-0.102-2.599-0.052-4.01-0.066c-0.708,0.004-1.431-0.01-2.171-0.033
		c-0.764,0.024-1.544,0.051-2.339,0.074c-0.797,0.006-1.607,0.021-2.428,0.004l-0.308-0.002l-0.154-0.002h-0.02
		c-0.019,0,0.094-0.004,0.037-0.002l-0.037,0.002l-0.075,0.006l-0.606,0.031c-0.405,0.02-0.813,0.037-1.223,0.06
		c-0.817,0.038-1.646,0.069-2.476,0.129c-0.825,0.101-1.652,0.2-2.48,0.302c-1.667,0.163-3.296,0.536-4.917,0.839
		c-0.813,0.138-1.603,0.353-2.384,0.56c-0.783,0.207-1.557,0.408-2.317,0.607c-1.507,0.447-2.938,0.973-4.32,1.401
		c-1.347,0.53-2.62,1.03-3.797,1.496c-1.145,0.532-2.193,1.022-3.122,1.456c-0.943,0.414-1.715,0.9-2.377,1.238
		c-1.31,0.707-2.058,1.112-2.058,1.112L11.072,63.666z"/>
</g>
<path fill="#FFFFFF" d="M11.117,63.977c0,0-0.712-1.36-1.721-3.427c-0.51-1.03-1.108-2.229-1.72-3.528
	c-0.629-1.291-1.257-2.684-1.898-4.07c-0.627-1.396-1.41-2.729-1.939-4.058C3.328,47.555,3,46.251,2.775,45.111
	c-0.213-1.143-0.339-2.117-0.368-2.82c-0.041-0.699-0.014-1.118-0.014-1.118l0.279-0.106c0,0,0.3,0.293,0.735,0.841
	c0.449,0.543,1.004,1.352,1.609,2.346c0.593,0.999,1.219,2.188,1.73,3.525c0.493,1.343,0.801,2.858,1.264,4.314
	c0.45,1.462,0.912,2.919,1.305,4.3c0.41,1.375,0.767,2.668,1.075,3.775c0.627,2.211,1.005,3.7,1.005,3.7L11.117,63.977z"/>
<g>
	<path fill="#FFFFFF" d="M11.687,78.133c0.513,0,0.978,0.079,1.391,0.238c0.414,0.16,0.768,0.39,1.061,0.689
		c0.293,0.301,0.519,0.67,0.679,1.107c0.159,0.438,0.238,0.936,0.238,1.488c0,0.605-0.088,1.141-0.266,1.605
		c-0.177,0.467-0.429,0.857-0.756,1.174c-0.326,0.316-0.72,0.56-1.179,0.725c-0.46,0.166-0.974,0.248-1.539,0.248
		c-0.514,0-0.979-0.082-1.395-0.248c-0.417-0.166-0.771-0.401-1.065-0.708c-0.292-0.308-0.517-0.683-0.674-1.124
		c-0.158-0.439-0.237-0.939-0.237-1.5c0-0.602,0.089-1.135,0.266-1.596c0.178-0.463,0.429-0.85,0.756-1.158
		c0.327-0.313,0.719-0.547,1.181-0.706C10.608,78.212,11.121,78.133,11.687,78.133z M11.388,78.635c-0.39,0-0.726,0.079-1.004,0.238
		c-0.279,0.16-0.507,0.374-0.684,0.641c-0.178,0.268-0.308,0.573-0.391,0.92c-0.085,0.348-0.126,0.707-0.126,1.082
		c0,0.418,0.044,0.83,0.135,1.235c0.089,0.407,0.231,0.769,0.426,1.087c0.196,0.319,0.448,0.577,0.759,0.773
		c0.311,0.199,0.687,0.297,1.124,0.297c0.39,0,0.724-0.082,1.002-0.249c0.279-0.165,0.509-0.384,0.685-0.657
		c0.177-0.271,0.309-0.585,0.392-0.938c0.085-0.354,0.126-0.717,0.126-1.092c0-0.418-0.045-0.828-0.135-1.229
		c-0.089-0.401-0.232-0.758-0.428-1.07c-0.194-0.313-0.448-0.563-0.758-0.755C12.2,78.73,11.825,78.635,11.388,78.635z"/>
	<path fill="#FFFFFF" d="M20.009,78.395c0.175-0.035,0.349-0.064,0.519-0.092c0.171-0.025,0.329-0.047,0.469-0.066
		c0.142-0.018,0.261-0.029,0.359-0.041c0.098-0.01,0.161-0.014,0.188-0.014c0.06,0,0.105,0.018,0.135,0.049
		c0.03,0.035,0.064,0.086,0.105,0.153l1.41,2.39l1.451-2.289c0-0.002,0.001-0.004,0.004-0.004c0.001,0,0.002-0.004,0.002-0.006
		c0.031-0.043,0.06-0.078,0.086-0.103c0.026-0.022,0.067-0.044,0.123-0.06c0.055-0.017,0.115-0.027,0.179-0.037
		c0.063-0.006,0.126-0.016,0.186-0.021c0.059-0.006,0.114-0.011,0.164-0.013c0.05-0.001,0.089-0.003,0.117-0.003
		c0.076,0,0.114,0.024,0.114,0.077c0,0.035-0.011,0.067-0.037,0.097l-2.037,2.958l2.181,3.688c0.016,0.018,0.024,0.041,0.024,0.072
		c0,0.063-0.041,0.102-0.119,0.113c-0.069,0.012-0.149,0.021-0.243,0.031c-0.094,0.012-0.186,0.02-0.277,0.024
		c-0.092,0.007-0.175,0.011-0.251,0.013c-0.076,0.002-0.13,0.002-0.162,0.002c-0.067,0-0.121-0.03-0.161-0.096l-1.733-2.922
		l-1.727,2.76c-0.028,0.045-0.057,0.082-0.087,0.108c-0.03,0.028-0.072,0.05-0.128,0.065c-0.056,0.017-0.116,0.027-0.181,0.039
		c-0.065,0.01-0.13,0.017-0.191,0.021c-0.063,0.003-0.12,0.006-0.17,0.008c-0.053,0.002-0.092,0.003-0.121,0.003
		c-0.075,0-0.114-0.025-0.114-0.076c0-0.033,0.012-0.063,0.037-0.097l2.324-3.437l-1.518-2.563c-0.104-0.17-0.202-0.284-0.295-0.343
		c-0.093-0.059-0.204-0.086-0.331-0.086c-0.041,0-0.082,0.002-0.123,0.006c-0.042,0.003-0.087,0.01-0.134,0.018L20.009,78.395z"/>
	<path fill="#FFFFFF" d="M32.17,78.182c0.058,0,0.106,0.019,0.143,0.053c0.035,0.035,0.072,0.086,0.106,0.154l1.697,3.047
		l1.447-2.944c0.024-0.048,0.05-0.085,0.078-0.113c0.028-0.026,0.068-0.05,0.125-0.063c0.056-0.018,0.115-0.028,0.18-0.037
		c0.063-0.008,0.124-0.017,0.184-0.021c0.06-0.006,0.115-0.011,0.165-0.013c0.05-0.001,0.089-0.003,0.116-0.003
		c0.072,0,0.107,0.023,0.107,0.07c0,0.017-0.003,0.031-0.012,0.047c-0.007,0.019-0.016,0.035-0.023,0.056l-2.146,3.598v3.065
		c0,0.096-0.047,0.15-0.144,0.167c-0.067,0.012-0.142,0.022-0.223,0.032c-0.081,0.011-0.162,0.019-0.239,0.023
		c-0.078,0.006-0.149,0.012-0.215,0.012c-0.065,0.002-0.115,0.004-0.147,0.004c-0.095,0-0.144-0.051-0.144-0.148v-3.047
		l-1.655-2.952c-0.1-0.181-0.193-0.306-0.281-0.374s-0.196-0.104-0.323-0.104c-0.032,0-0.069,0.002-0.107,0.01
		c-0.04,0.005-0.086,0.012-0.137,0.02l-0.037-0.328c0.175-0.037,0.345-0.065,0.511-0.093c0.167-0.026,0.317-0.048,0.451-0.065
		c0.136-0.019,0.25-0.029,0.342-0.039C32.081,78.184,32.141,78.182,32.17,78.182z"/>
	<path fill="#FFFFFF" d="M43.62,78.796c-0.259,0-0.473,0.007-0.643,0.021c-0.169,0.017-0.31,0.062-0.421,0.14
		c-0.111,0.077-0.204,0.2-0.278,0.367c-0.073,0.167-0.145,0.401-0.212,0.704l-0.299-0.029c0-0.016,0.001-0.061,0.002-0.132
		c0.003-0.071,0.006-0.157,0.012-0.257c0.005-0.101,0.013-0.209,0.019-0.328c0.006-0.12,0.012-0.237,0.021-0.35
		c0.007-0.115,0.016-0.22,0.023-0.316c0.009-0.1,0.016-0.176,0.025-0.229c0.003-0.06,0.04-0.09,0.107-0.09
		c0.363,0.009,0.709,0.015,1.041,0.021c0.33,0.004,0.635,0.004,0.914,0.004h1.99c0.279,0,0.585,0,0.919-0.004
		c0.336-0.004,0.684-0.01,1.047-0.021c0.056,0,0.087,0.03,0.095,0.09c0.009,0.056,0.015,0.134,0.021,0.229
		c0.006,0.098,0.012,0.201,0.018,0.316c0.006,0.111,0.01,0.229,0.014,0.35c0.005,0.119,0.008,0.229,0.009,0.328
		c0.003,0.101,0.004,0.187,0.006,0.257c0.003,0.071,0.003,0.116,0.003,0.132l-0.298,0.029c-0.068-0.303-0.137-0.537-0.207-0.704
		c-0.068-0.167-0.158-0.29-0.266-0.367c-0.106-0.078-0.244-0.124-0.408-0.14c-0.165-0.014-0.379-0.021-0.643-0.021h-0.765v6.28
		c0,0.096-0.048,0.15-0.143,0.167c-0.068,0.012-0.143,0.022-0.225,0.032c-0.082,0.011-0.16,0.019-0.24,0.023
		c-0.077,0.008-0.148,0.012-0.214,0.014c-0.065,0.002-0.114,0.002-0.146,0.002c-0.096,0-0.143-0.049-0.143-0.148v-6.37H43.62z"/>
	<path fill="#FFFFFF" d="M56.846,78.133c0.514,0,0.979,0.079,1.391,0.238c0.416,0.16,0.771,0.39,1.063,0.689
		c0.293,0.301,0.519,0.67,0.681,1.107c0.156,0.438,0.236,0.936,0.236,1.488c0,0.605-0.087,1.141-0.266,1.605
		c-0.178,0.467-0.432,0.857-0.758,1.174c-0.324,0.316-0.719,0.56-1.18,0.725c-0.459,0.166-0.974,0.248-1.539,0.248
		c-0.514,0-0.979-0.082-1.396-0.248c-0.416-0.166-0.771-0.401-1.063-0.708c-0.291-0.308-0.518-0.683-0.675-1.124
		c-0.157-0.439-0.237-0.939-0.237-1.5c0-0.602,0.09-1.135,0.268-1.596c0.178-0.463,0.429-0.85,0.756-1.158
		c0.327-0.313,0.721-0.547,1.182-0.706C55.768,78.212,56.279,78.133,56.846,78.133z M56.547,78.635c-0.39,0-0.727,0.079-1.004,0.238
		c-0.279,0.16-0.506,0.374-0.684,0.641c-0.178,0.268-0.309,0.573-0.393,0.92c-0.084,0.348-0.125,0.707-0.125,1.082
		c0,0.418,0.043,0.83,0.135,1.235c0.09,0.407,0.231,0.769,0.428,1.087c0.195,0.319,0.447,0.577,0.759,0.773
		c0.312,0.199,0.687,0.297,1.124,0.297c0.39,0,0.725-0.082,1.003-0.249c0.278-0.165,0.508-0.384,0.685-0.657
		c0.178-0.271,0.31-0.585,0.393-0.938c0.084-0.354,0.125-0.717,0.125-1.092c0-0.418-0.047-0.828-0.135-1.229
		c-0.09-0.401-0.231-0.758-0.428-1.07c-0.195-0.313-0.449-0.563-0.759-0.755C57.359,78.73,56.984,78.635,56.547,78.635z"/>
	<path fill="#FFFFFF" d="M67.598,83.057c-0.004,0.297,0.033,0.549,0.112,0.754c0.081,0.207,0.19,0.371,0.336,0.498
		c0.144,0.125,0.31,0.215,0.5,0.27c0.19,0.054,0.399,0.081,0.622,0.081c0.288,0,0.568-0.048,0.846-0.138
		c0.276-0.092,0.553-0.205,0.826-0.342V78.48c0-0.092,0.049-0.148,0.145-0.168c0.063-0.014,0.138-0.021,0.22-0.029
		s0.162-0.016,0.241-0.021c0.078-0.005,0.15-0.011,0.218-0.014c0.065-0.004,0.114-0.007,0.146-0.007c0.096,0,0.146,0.05,0.146,0.149
		v6.687c0,0.096-0.05,0.151-0.146,0.167c-0.065,0.012-0.141,0.023-0.218,0.033s-0.153,0.018-0.228,0.022
		c-0.073,0.007-0.141,0.013-0.2,0.013c-0.06,0.002-0.104,0.004-0.138,0.004c-0.092,0-0.14-0.051-0.144-0.149l-0.043-0.49
		c-0.374,0.207-0.769,0.38-1.179,0.519c-0.413,0.138-0.829,0.205-1.252,0.205c-0.264,0-0.512-0.034-0.746-0.105
		c-0.235-0.07-0.438-0.184-0.613-0.33c-0.173-0.146-0.313-0.335-0.41-0.563c-0.104-0.229-0.154-0.5-0.154-0.813v-4.34
		c0-0.111-0.01-0.203-0.031-0.271s-0.055-0.125-0.096-0.164c-0.041-0.041-0.092-0.066-0.149-0.084
		c-0.06-0.017-0.123-0.022-0.194-0.022c-0.08,0-0.166,0.006-0.263,0.019l-0.036-0.328c0.217-0.039,0.419-0.074,0.613-0.104
		c0.191-0.025,0.363-0.049,0.514-0.064c0.148-0.017,0.273-0.026,0.374-0.035c0.099-0.008,0.164-0.012,0.191-0.012
		c0.126,0,0.19,0.063,0.19,0.188V83.057L67.598,83.057z"/>
	<path fill="#FFFFFF" d="M80.193,81.652c0.308-0.021,0.58-0.063,0.813-0.131c0.235-0.068,0.432-0.166,0.59-0.297
		c0.156-0.129,0.276-0.293,0.357-0.492c0.08-0.199,0.121-0.44,0.121-0.725c0-0.234-0.043-0.439-0.133-0.615
		c-0.088-0.176-0.207-0.319-0.361-0.434c-0.156-0.113-0.339-0.198-0.553-0.254c-0.211-0.057-0.438-0.084-0.68-0.084
		c-0.16,0-0.279,0.013-0.357,0.04c-0.081,0.024-0.12,0.098-0.12,0.217v6.197c0,0.096-0.048,0.149-0.144,0.167
		c-0.068,0.012-0.144,0.021-0.226,0.031c-0.082,0.012-0.161,0.02-0.237,0.024c-0.08,0.007-0.149,0.011-0.218,0.013
		c-0.065,0.002-0.114,0.002-0.146,0.002c-0.096,0-0.145-0.049-0.145-0.147v-5.994c0-0.196-0.044-0.331-0.132-0.396
		c-0.087-0.065-0.201-0.1-0.341-0.1c-0.079,0-0.167,0.008-0.264,0.02l-0.035-0.329c0.396-0.067,0.813-0.124,1.24-0.171
		c0.426-0.045,0.864-0.067,1.313-0.067c0.189,0,0.393,0.008,0.604,0.024c0.213,0.015,0.418,0.045,0.623,0.089
		c0.202,0.044,0.396,0.104,0.579,0.182c0.183,0.078,0.345,0.181,0.48,0.306s0.247,0.276,0.327,0.455
		c0.082,0.176,0.123,0.387,0.123,0.629c0,0.258-0.039,0.487-0.115,0.687c-0.077,0.196-0.186,0.371-0.323,0.521
		c-0.137,0.152-0.297,0.281-0.479,0.391c-0.184,0.109-0.381,0.197-0.59,0.273v0.035c0.098,0.021,0.207,0.053,0.32,0.094
		c0.116,0.041,0.229,0.102,0.337,0.18c0.109,0.076,0.213,0.176,0.306,0.296c0.095,0.12,0.168,0.267,0.225,0.44l0.441,1.369
		c0.061,0.188,0.114,0.336,0.166,0.447c0.049,0.111,0.102,0.196,0.156,0.253c0.057,0.058,0.12,0.097,0.191,0.114
		c0.07,0.018,0.162,0.027,0.269,0.027l0.019,0.31c-0.075,0.017-0.158,0.032-0.248,0.045c-0.09,0.015-0.178,0.024-0.266,0.033
		c-0.089,0.008-0.166,0.015-0.236,0.021s-0.123,0.01-0.159,0.01c-0.127,0-0.241-0.016-0.341-0.045
		c-0.098-0.029-0.189-0.082-0.269-0.154c-0.081-0.073-0.149-0.172-0.213-0.292c-0.063-0.122-0.118-0.274-0.171-0.457l-0.424-1.458
		c-0.061-0.207-0.133-0.372-0.215-0.496c-0.084-0.123-0.188-0.219-0.314-0.284c-0.125-0.063-0.275-0.108-0.454-0.131
		c-0.177-0.021-0.392-0.037-0.643-0.044L80.193,81.652z"/>
	<path fill="#FFFFFF" d="M93.473,79.938c-0.041-0.22-0.104-0.406-0.195-0.563c-0.088-0.157-0.198-0.288-0.329-0.392
		c-0.132-0.104-0.281-0.182-0.445-0.23c-0.165-0.05-0.344-0.074-0.536-0.074c-0.188,0-0.365,0.022-0.537,0.068
		c-0.171,0.046-0.322,0.119-0.453,0.219c-0.133,0.1-0.236,0.229-0.314,0.383c-0.077,0.154-0.117,0.34-0.117,0.555
		c0,0.19,0.046,0.354,0.137,0.494c0.092,0.137,0.215,0.256,0.368,0.357s0.33,0.192,0.529,0.271c0.2,0.082,0.407,0.16,0.622,0.24
		c0.238,0.092,0.479,0.19,0.717,0.297c0.24,0.104,0.454,0.232,0.643,0.385c0.189,0.152,0.344,0.335,0.461,0.55
		s0.177,0.479,0.177,0.794c0,0.275-0.038,0.518-0.116,0.729c-0.077,0.211-0.186,0.396-0.323,0.554
		c-0.137,0.157-0.298,0.288-0.479,0.397c-0.186,0.106-0.381,0.193-0.592,0.26c-0.211,0.064-0.433,0.111-0.66,0.141
		c-0.229,0.027-0.455,0.042-0.678,0.042c-0.268,0-0.533-0.017-0.799-0.049c-0.264-0.031-0.527-0.077-0.792-0.138
		c-0.036-0.008-0.063-0.023-0.085-0.051c-0.021-0.025-0.035-0.053-0.04-0.08c-0.009-0.084-0.016-0.207-0.022-0.367
		c-0.008-0.162-0.018-0.326-0.021-0.494c-0.006-0.168-0.01-0.317-0.016-0.454c-0.004-0.136-0.006-0.216-0.006-0.238l0.299-0.03
		c0.029,0.24,0.092,0.446,0.188,0.621c0.098,0.178,0.223,0.319,0.369,0.434c0.149,0.113,0.322,0.197,0.516,0.252
		c0.192,0.054,0.399,0.08,0.625,0.08c0.199,0,0.393-0.022,0.58-0.068c0.187-0.045,0.353-0.12,0.498-0.221
		c0.146-0.103,0.262-0.232,0.35-0.393c0.087-0.158,0.133-0.353,0.133-0.58c0-0.188-0.047-0.347-0.139-0.478
		c-0.09-0.132-0.213-0.248-0.366-0.351c-0.153-0.102-0.33-0.191-0.527-0.271c-0.196-0.081-0.401-0.161-0.61-0.246
		c-0.239-0.097-0.479-0.196-0.717-0.31c-0.24-0.107-0.455-0.24-0.644-0.396c-0.19-0.153-0.343-0.344-0.461-0.563
		c-0.117-0.224-0.175-0.494-0.175-0.815c0-0.39,0.076-0.718,0.229-0.979c0.153-0.263,0.354-0.474,0.604-0.635
		c0.248-0.158,0.531-0.271,0.851-0.34c0.315-0.068,0.642-0.102,0.972-0.102c0.219,0,0.457,0.017,0.717,0.051
		c0.26,0.033,0.502,0.078,0.729,0.134c0.035,0.009,0.063,0.024,0.085,0.052c0.021,0.025,0.035,0.053,0.04,0.08
		c0.009,0.083,0.019,0.201,0.022,0.35c0.007,0.149,0.017,0.304,0.022,0.455c0.009,0.153,0.015,0.291,0.021,0.416
		c0.002,0.123,0.007,0.196,0.007,0.222L93.473,79.938z"/>
</g>
</svg>
