<?xml version="1.0" encoding="utf-8"?>
<!-- Generator: Adobe Illustrator 16.0.0, SVG Export Plug-In . SVG Version: 6.00 Build 0)  -->
<!DOCTYPE svg PUBLIC "-//W3C//DTD SVG 1.1//EN" "http://www.w3.org/Graphics/SVG/1.1/DTD/svg11.dtd">
<svg version="1.1" id="Layer_1" xmlns="http://www.w3.org/2000/svg" xmlns:xlink="http://www.w3.org/1999/xlink" x="0px" y="0px"
	 width="100px" height="68.75px" viewBox="0 0 100 68.75" enable-background="new 0 0 100 68.75" xml:space="preserve">
<g>
	<g>
		<g>
			<path fill="#847F6B" d="M91.616,34.962c0-14.042-11.383-25.426-25.425-25.426c-14.043,0-25.425,11.384-25.425,25.426
				c0,2.546,0.379,5.005,1.075,7.325c6.549-0.204,12.964,0.751,12.964,0.751c-0.207-2.293,0-6.085,0-6.085
				s0.73-14.077,13.838-10.246c2.261,0.715,3.111,1.45,5.149,5.418c0,0,3.729,0.698,4.237,4.667c0,0,0.322,2.521,6.974,4.962
				c0,0,1.584,1.904-5.712,0.643c0,0-5.579-2.146-8.126-0.938c-2.548,1.208-2.386,2.334,0.563,4.692
				c2.95,2.361,3.296,3.858,3.351,4.16c0.608,3.148-0.021,6.175-1.246,8.904C84.139,55.972,91.616,46.34,91.616,34.962z"/>
		</g>
	</g>
	<g>
		<path fill="#847F6B" d="M15.977,52.429c0,0,0.616-0.415,1.694-1.144c0.547-0.354,1.173-0.835,1.979-1.27
			c0.793-0.456,1.688-0.97,2.664-1.53c1.008-0.499,2.102-1.04,3.257-1.612c1.191-0.493,2.448-1.028,3.769-1.522
			c0.668-0.224,1.351-0.452,2.039-0.68c0.689-0.233,1.388-0.474,2.109-0.645c1.438-0.37,2.891-0.802,4.383-1.05
			c0.742-0.148,1.484-0.295,2.225-0.444c0.748-0.104,1.492-0.207,2.231-0.309c0.37-0.053,0.74-0.103,1.106-0.155l0.549-0.075
			l0.069-0.009l0.035-0.004l0.083-0.005l0.134-0.008l0.27-0.016c0.715-0.047,1.422-0.068,2.119-0.096
			c0.697-0.005,1.376-0.042,2.054-0.018c0.692,0.052,1.369,0.105,2.027,0.176c0.655,0.067,1.293,0.128,1.909,0.193
			c0.62,0.056,1.193,0.214,1.755,0.313c1.114,0.223,2.13,0.462,3.023,0.673c0.884,0.274,1.646,0.538,2.268,0.761
			c1.245,0.446,1.937,0.743,1.937,0.743l-0.062,0.254c0,0-0.765,0-2.063-0.08c-0.651-0.033-1.435-0.099-2.327-0.171
			c-0.901-0.021-1.913-0.042-3.008-0.102c-1.096-0.089-2.271-0.045-3.504-0.057c-0.62,0.003-1.251-0.009-1.898-0.029
			c-0.667,0.021-1.35,0.044-2.044,0.065c-0.696,0.005-1.404,0.018-2.122,0.003l-0.269-0.001l-0.135-0.002h-0.018
			c-0.017,0,0.083-0.003,0.033-0.001l-0.033,0.001l-0.065,0.005l-0.529,0.026c-0.354,0.018-0.71,0.032-1.069,0.053
			c-0.714,0.034-1.438,0.061-2.164,0.113c-0.721,0.088-1.443,0.175-2.167,0.264c-1.457,0.143-2.881,0.469-4.298,0.733
			c-0.71,0.12-1.401,0.308-2.083,0.489c-0.685,0.181-1.361,0.357-2.025,0.531c-1.317,0.391-2.568,0.85-3.776,1.225
			c-1.177,0.463-2.29,0.9-3.318,1.308c-1,0.465-1.917,0.893-2.729,1.272c-0.824,0.362-1.499,0.787-2.078,1.082
			c-1.145,0.618-1.799,0.972-1.799,0.972L15.977,52.429z"/>
	</g>
	<path fill="#847F6B" d="M16.016,52.7c0,0-0.623-1.188-1.504-2.995c-0.446-0.901-0.969-1.949-1.504-3.084
		c-0.549-1.128-1.098-2.345-1.659-3.557c-0.548-1.22-1.232-2.385-1.694-3.547c-0.447-1.17-0.733-2.31-0.93-3.306
		c-0.186-0.999-0.296-1.85-0.321-2.465c-0.036-0.611-0.012-0.977-0.012-0.977l0.244-0.093c0,0,0.262,0.256,0.643,0.735
		c0.392,0.475,0.877,1.181,1.406,2.05c0.518,0.873,1.065,1.912,1.512,3.081c0.431,1.174,0.7,2.498,1.104,3.771
		c0.394,1.278,0.797,2.551,1.141,3.758c0.359,1.202,0.671,2.332,0.94,3.3c0.548,1.933,0.878,3.234,0.878,3.234L16.016,52.7z"/>
</g>
</svg>
