<?xml version="1.0" encoding="utf-8"?>
<!-- Generator: Adobe Illustrator 16.0.0, SVG Export Plug-In . SVG Version: 6.00 Build 0)  -->
<!DOCTYPE svg PUBLIC "-//W3C//DTD SVG 1.1//EN" "http://www.w3.org/Graphics/SVG/1.1/DTD/svg11.dtd">
<svg version="1.1" id="Layer_1" xmlns="http://www.w3.org/2000/svg" xmlns:xlink="http://www.w3.org/1999/xlink" x="0px" y="0px"
	 width="295.242px" height="178.167px" viewBox="0 -78.167 295.242 178.167" enable-background="new 0 -78.167 295.242 178.167"
	 xml:space="preserve">
<g>
	<g>
		<g>
			<path fill="#635E4E" d="M235.251-0.716c0-29.567-23.969-53.539-53.537-53.539c-29.569,0-53.536,23.972-53.536,53.539
				c0,5.361,0.799,10.54,2.264,15.425c13.789-0.429,27.296,1.582,27.296,1.582c-0.435-4.829,0-12.815,0-12.815
				s1.538-29.641,29.138-21.574c4.762,1.505,6.554,3.053,10.845,11.409c0,0,7.851,1.468,8.921,9.827c0,0,0.681,5.308,14.686,10.447
				c0,0,3.333,4.01-12.028,1.354c0,0-11.747-4.519-17.109-1.976c-5.367,2.543-5.025,4.914,1.186,9.879
				c6.211,4.971,6.94,8.124,7.056,8.76c1.28,6.628-0.046,13-2.623,18.75C219.506,43.525,235.251,23.244,235.251-0.716z"/>
		</g>
	</g>
	<g>
		<path fill="#635E4E" d="M75.98,36.063c0,0,1.297-0.874,3.564-2.409c1.154-0.746,2.472-1.758,4.169-2.673
			c1.672-0.959,3.553-2.042,5.608-3.221c2.123-1.051,4.425-2.19,6.858-3.394c2.507-1.039,5.154-2.166,7.937-3.206
			c1.407-0.472,2.844-0.953,4.293-1.433c1.451-0.491,2.922-0.998,4.441-1.356c3.026-0.781,6.088-1.69,9.229-2.211
			c1.563-0.313,3.126-0.622,4.685-0.935c1.575-0.22,3.143-0.436,4.698-0.651c0.78-0.111,1.558-0.217,2.329-0.327l1.155-0.157
			l0.146-0.02l0.072-0.01l0.175-0.011l0.284-0.019l0.565-0.031c1.508-0.1,2.997-0.145,4.463-0.201
			c1.469-0.011,2.898-0.09,4.326-0.038c1.457,0.109,2.881,0.222,4.266,0.371c1.381,0.141,2.725,0.271,4.021,0.407
			c1.305,0.117,2.513,0.451,3.695,0.66c2.347,0.469,4.485,0.972,6.365,1.417c1.862,0.577,3.466,1.133,4.775,1.604
			c2.622,0.938,4.078,1.564,4.078,1.564l-0.13,0.536c0,0-1.609,0-4.346-0.17c-1.37-0.068-3.02-0.208-4.899-0.358
			c-1.898-0.044-4.029-0.09-6.333-0.215c-2.307-0.188-4.782-0.094-7.38-0.12c-1.302,0.007-2.633-0.02-3.994-0.061
			c-1.406,0.042-2.843,0.093-4.305,0.136c-1.466,0.011-2.956,0.038-4.468,0.007l-0.565-0.003l-0.285-0.004h-0.038
			c-0.033,0,0.175-0.007,0.069-0.003l-0.069,0.003l-0.136,0.011l-1.116,0.056c-0.746,0.038-1.495,0.069-2.25,0.111
			c-1.504,0.07-3.03,0.127-4.559,0.238c-1.518,0.186-3.039,0.369-4.563,0.555c-3.067,0.301-6.065,0.987-9.049,1.544
			c-1.497,0.253-2.951,0.649-4.387,1.029c-1.442,0.381-2.866,0.751-4.266,1.118c-2.772,0.823-5.407,1.791-7.95,2.58
			c-2.479,0.976-4.822,1.896-6.988,2.753c-2.105,0.979-4.036,1.88-5.746,2.68c-1.732,0.763-3.154,1.657-4.374,2.279
			c-2.41,1.302-3.786,2.045-3.786,2.045L75.98,36.063z"/>
	</g>
	<path fill="#635E4E" d="M76.063,36.634c0,0-1.311-2.502-3.166-6.306c-0.938-1.897-2.04-4.103-3.167-6.494
		c-1.158-2.376-2.313-4.939-3.492-7.489c-1.154-2.568-2.596-5.023-3.569-7.469c-0.94-2.463-1.544-4.863-1.957-6.961
		c-0.392-2.104-0.624-3.896-0.678-5.19c-0.075-1.286-0.025-2.057-0.025-2.057l0.513-0.195c0,0,0.553,0.54,1.353,1.548
		c0.827,1,1.848,2.487,2.963,4.318c1.091,1.837,2.242,4.025,3.183,6.486c0.907,2.473,1.473,5.26,2.325,7.94
		c0.829,2.689,1.679,5.372,2.403,7.913c0.754,2.531,1.41,4.911,1.979,6.948c1.154,4.069,1.85,6.81,1.85,6.81L76.063,36.634z"/>
	<g>
		<path fill="#635E4E" d="M77.112,62.688c0.943,0,1.799,0.144,2.559,0.438c0.763,0.294,1.415,0.715,1.954,1.269
			c0.54,0.555,0.954,1.233,1.249,2.034c0.293,0.81,0.438,1.727,0.438,2.739c0,1.114-0.164,2.1-0.491,2.954
			c-0.324,0.859-0.789,1.579-1.39,2.162c-0.601,0.581-1.325,1.031-2.17,1.333c-0.847,0.306-1.793,0.456-2.833,0.456
			c-0.946,0-1.803-0.15-2.567-0.456c-0.768-0.306-1.418-0.737-1.959-1.302c-0.538-0.567-0.952-1.257-1.24-2.07
			c-0.292-0.805-0.438-1.726-0.438-2.761c0-1.106,0.164-2.088,0.49-2.937c0.328-0.853,0.79-1.563,1.391-2.131
			c0.602-0.576,1.324-1.006,2.174-1.299C75.127,62.831,76.07,62.688,77.112,62.688z M76.563,63.612
			c-0.719,0-1.338,0.143-1.849,0.438c-0.513,0.296-0.934,0.687-1.259,1.179c-0.327,0.492-0.565,1.054-0.719,1.693
			c-0.156,0.641-0.232,1.301-0.232,1.991c0,0.77,0.081,1.528,0.248,2.272c0.164,0.75,0.425,1.416,0.783,2.001
			c0.361,0.587,0.826,1.061,1.396,1.423c0.573,0.368,1.266,0.547,2.069,0.547c0.719,0,1.333-0.15,1.844-0.459
			c0.514-0.302,0.938-0.706,1.262-1.209c0.325-0.499,0.568-1.077,0.722-1.725c0.156-0.654,0.231-1.318,0.231-2.01
			c0-0.769-0.083-1.523-0.249-2.265c-0.163-0.736-0.428-1.394-0.786-1.97c-0.358-0.574-0.826-1.035-1.396-1.387
			C78.056,63.788,77.365,63.612,76.563,63.612z"/>
		<path fill="#635E4E" d="M92.427,63.17c0.323-0.065,0.643-0.119,0.955-0.17c0.315-0.046,0.606-0.086,0.863-0.121
			c0.263-0.033,0.479-0.055,0.662-0.077c0.179-0.017,0.296-0.023,0.344-0.023c0.111,0,0.195,0.031,0.25,0.089
			c0.055,0.064,0.117,0.158,0.192,0.28l2.596,4.4l2.67-4.214c0-0.003,0.003-0.007,0.008-0.007c0.002,0,0.003-0.008,0.003-0.011
			c0.059-0.079,0.11-0.144,0.159-0.19c0.049-0.039,0.124-0.079,0.227-0.108c0.101-0.031,0.211-0.049,0.328-0.067
			c0.117-0.011,0.232-0.033,0.344-0.04c0.107-0.01,0.208-0.021,0.302-0.024c0.092,0,0.163-0.004,0.214-0.004
			c0.14,0,0.21,0.043,0.21,0.14c0,0.065-0.02,0.123-0.067,0.181l-3.75,5.441l4.016,6.79c0.028,0.032,0.043,0.075,0.043,0.129
			c0,0.119-0.076,0.19-0.219,0.209c-0.127,0.021-0.273,0.04-0.446,0.058c-0.175,0.021-0.343,0.035-0.511,0.043
			c-0.168,0.014-0.321,0.021-0.462,0.025c-0.141,0.003-0.238,0.003-0.298,0.003c-0.124,0-0.223-0.053-0.297-0.176l-3.188-5.377
			l-3.179,5.079c-0.053,0.082-0.104,0.15-0.16,0.197c-0.056,0.054-0.133,0.094-0.235,0.123c-0.104,0.027-0.214,0.046-0.332,0.071
			c-0.121,0.019-0.241,0.029-0.353,0.035c-0.115,0.007-0.221,0.011-0.313,0.015c-0.097,0.004-0.168,0.007-0.223,0.007
			c-0.138,0-0.21-0.046-0.21-0.139c0-0.063,0.023-0.115,0.068-0.181l4.277-6.323l-2.793-4.719c-0.192-0.313-0.372-0.521-0.544-0.629
			c-0.171-0.108-0.375-0.157-0.608-0.157c-0.075,0-0.15,0.002-0.226,0.009c-0.077,0.004-0.162,0.019-0.249,0.033L92.427,63.17z"/>
		<path fill="#635E4E" d="M114.807,62.778c0.108,0,0.196,0.035,0.265,0.097c0.065,0.064,0.131,0.157,0.193,0.283l3.124,5.607
			l2.664-5.417c0.043-0.09,0.091-0.157,0.144-0.208c0.051-0.046,0.123-0.094,0.23-0.115c0.102-0.035,0.209-0.054,0.33-0.068
			c0.115-0.015,0.229-0.032,0.337-0.04c0.112-0.011,0.213-0.021,0.305-0.023c0.094,0,0.164-0.004,0.214-0.004
			c0.133,0,0.198,0.042,0.198,0.128c0,0.029-0.006,0.055-0.024,0.087c-0.012,0.032-0.027,0.065-0.041,0.102l-3.95,6.624v5.639
			c0,0.176-0.086,0.278-0.265,0.306c-0.123,0.022-0.262,0.044-0.409,0.063c-0.149,0.017-0.299,0.031-0.44,0.038
			c-0.145,0.015-0.275,0.025-0.396,0.025c-0.121,0.004-0.212,0.008-0.271,0.008c-0.174,0-0.264-0.094-0.264-0.272v-5.607
			l-3.046-5.436c-0.184-0.331-0.356-0.561-0.518-0.687c-0.163-0.126-0.361-0.19-0.596-0.19c-0.057,0-0.126,0.004-0.195,0.018
			c-0.073,0.007-0.158,0.021-0.252,0.036l-0.067-0.604c0.321-0.068,0.634-0.119,0.939-0.172c0.308-0.048,0.584-0.088,0.83-0.119
			c0.25-0.036,0.461-0.055,0.629-0.073C114.644,62.781,114.755,62.778,114.807,62.778z"/>
		<path fill="#635E4E" d="M135.879,63.906c-0.476,0-0.869,0.015-1.182,0.039c-0.312,0.032-0.572,0.115-0.774,0.26
			c-0.205,0.141-0.376,0.365-0.513,0.675c-0.135,0.306-0.269,0.737-0.39,1.295l-0.55-0.055c0-0.028,0.001-0.111,0.003-0.24
			c0.005-0.134,0.011-0.291,0.022-0.476c0.008-0.187,0.022-0.384,0.033-0.604c0.013-0.219,0.023-0.435,0.039-0.644
			c0.014-0.212,0.029-0.406,0.043-0.582c0.017-0.183,0.03-0.323,0.046-0.42c0.005-0.112,0.073-0.165,0.197-0.165
			c0.667,0.017,1.306,0.027,1.917,0.039c0.606,0.007,1.167,0.007,1.681,0.007h3.662c0.514,0,1.076,0,1.69-0.007
			c0.619-0.008,1.26-0.019,1.929-0.039c0.103,0,0.16,0.053,0.175,0.165c0.016,0.104,0.026,0.248,0.037,0.42
			c0.012,0.18,0.023,0.37,0.034,0.582c0.011,0.205,0.019,0.421,0.025,0.644c0.009,0.22,0.014,0.421,0.016,0.604
			c0.005,0.188,0.008,0.346,0.012,0.476c0.007,0.129,0.007,0.212,0.007,0.24l-0.551,0.055c-0.123-0.558-0.252-0.989-0.38-1.295
			c-0.125-0.31-0.29-0.534-0.49-0.675c-0.194-0.145-0.448-0.23-0.75-0.26c-0.305-0.024-0.698-0.039-1.183-0.039h-1.409v11.56
			c0,0.177-0.088,0.277-0.263,0.306c-0.126,0.021-0.262,0.043-0.413,0.062c-0.15,0.018-0.295,0.031-0.442,0.039
			c-0.143,0.018-0.273,0.025-0.394,0.028c-0.121,0.004-0.211,0.004-0.27,0.004c-0.176,0-0.263-0.09-0.263-0.272V63.906H135.879z"/>
		<path fill="#635E4E" d="M160.219,62.688c0.945,0,1.803,0.144,2.559,0.438c0.767,0.294,1.421,0.715,1.958,1.269
			c0.539,0.555,0.954,1.233,1.252,2.034c0.289,0.81,0.436,1.727,0.436,2.739c0,1.114-0.16,2.1-0.488,2.954
			c-0.327,0.859-0.794,1.579-1.396,2.162c-0.597,0.581-1.322,1.031-2.171,1.333c-0.844,0.306-1.793,0.456-2.832,0.456
			c-0.947,0-1.802-0.15-2.569-0.456c-0.766-0.306-1.421-0.737-1.956-1.302c-0.535-0.567-0.954-1.257-1.244-2.07
			c-0.287-0.805-0.434-1.726-0.434-2.761c0-1.106,0.165-2.088,0.492-2.937c0.327-0.853,0.789-1.563,1.39-2.131
			c0.603-0.576,1.328-1.006,2.175-1.299C158.234,62.831,159.177,62.688,160.219,62.688z M159.669,63.612
			c-0.717,0-1.337,0.143-1.848,0.438c-0.514,0.296-0.931,0.687-1.258,1.179c-0.326,0.492-0.57,1.054-0.724,1.693
			c-0.155,0.641-0.23,1.301-0.23,1.991c0,0.77,0.078,1.528,0.249,2.272c0.167,0.75,0.425,1.416,0.788,2.001
			c0.359,0.587,0.823,1.061,1.396,1.423c0.573,0.368,1.264,0.547,2.068,0.547c0.718,0,1.333-0.15,1.846-0.459
			c0.512-0.302,0.935-0.706,1.26-1.209c0.327-0.499,0.572-1.077,0.725-1.725c0.154-0.654,0.23-1.318,0.23-2.01
			c0-0.769-0.089-1.523-0.251-2.265c-0.165-0.736-0.423-1.394-0.787-1.97c-0.359-0.574-0.826-1.035-1.396-1.387
			C161.164,63.788,160.475,63.612,159.669,63.612z"/>
		<path fill="#635E4E" d="M180.006,71.749c-0.007,0.547,0.063,1.01,0.208,1.388c0.148,0.381,0.35,0.683,0.618,0.917
			c0.264,0.23,0.569,0.395,0.92,0.495c0.35,0.101,0.734,0.152,1.144,0.152c0.531,0,1.047-0.092,1.557-0.256
			c0.51-0.169,1.019-0.377,1.521-0.63V63.327c0-0.169,0.09-0.272,0.266-0.31c0.116-0.027,0.256-0.038,0.406-0.053
			c0.151-0.015,0.298-0.029,0.442-0.04c0.144-0.011,0.276-0.022,0.402-0.024c0.118-0.007,0.208-0.015,0.269-0.015
			c0.178,0,0.269,0.094,0.269,0.276v12.304c0,0.177-0.091,0.281-0.269,0.309c-0.12,0.022-0.261,0.044-0.402,0.063
			c-0.14,0.017-0.28,0.031-0.418,0.038c-0.135,0.015-0.261,0.025-0.368,0.025c-0.111,0.004-0.19,0.008-0.256,0.008
			c-0.169,0-0.257-0.094-0.265-0.276l-0.079-0.903c-0.688,0.382-1.414,0.702-2.168,0.956c-0.762,0.256-1.526,0.377-2.305,0.377
			c-0.484,0-0.941-0.061-1.373-0.193c-0.433-0.125-0.805-0.337-1.129-0.607c-0.317-0.266-0.574-0.614-0.755-1.035
			c-0.19-0.421-0.283-0.92-0.283-1.495v-7.986c0-0.205-0.019-0.375-0.056-0.501c-0.038-0.125-0.103-0.229-0.179-0.302
			c-0.075-0.075-0.169-0.121-0.272-0.153c-0.111-0.033-0.227-0.04-0.356-0.04c-0.146,0-0.306,0.011-0.485,0.036l-0.066-0.604
			c0.401-0.073,0.771-0.138,1.129-0.194c0.35-0.044,0.666-0.091,0.945-0.115c0.273-0.032,0.503-0.051,0.688-0.065
			c0.183-0.015,0.302-0.021,0.353-0.021c0.231,0,0.348,0.115,0.348,0.345V71.749L180.006,71.749z"/>
		<path fill="#635E4E" d="M203.188,69.165c0.566-0.04,1.066-0.119,1.494-0.241c0.434-0.125,0.796-0.306,1.087-0.546
			c0.287-0.237,0.508-0.539,0.656-0.906c0.148-0.366,0.224-0.813,0.224-1.337c0-0.428-0.079-0.806-0.244-1.129
			c-0.162-0.327-0.382-0.589-0.665-0.801c-0.287-0.205-0.624-0.364-1.018-0.469c-0.388-0.104-0.807-0.153-1.251-0.153
			c-0.294,0-0.514,0.025-0.658,0.075c-0.148,0.043-0.221,0.179-0.221,0.398v11.405c0,0.177-0.088,0.274-0.264,0.306
			c-0.126,0.021-0.267,0.04-0.417,0.058c-0.151,0.022-0.297,0.035-0.436,0.043c-0.146,0.015-0.274,0.021-0.402,0.025
			c-0.118,0.004-0.208,0.004-0.269,0.004c-0.178,0-0.267-0.09-0.267-0.27V64.596c0-0.358-0.082-0.61-0.243-0.729
			c-0.16-0.118-0.369-0.183-0.626-0.183c-0.147,0-0.31,0.015-0.486,0.036l-0.064-0.604c0.728-0.125,1.495-0.229,2.282-0.316
			c0.783-0.083,1.59-0.121,2.416-0.121c0.348,0,0.723,0.014,1.11,0.042c0.392,0.029,0.769,0.082,1.146,0.166
			c0.372,0.079,0.73,0.19,1.065,0.333c0.336,0.145,0.635,0.335,0.883,0.565c0.25,0.23,0.457,0.507,0.604,0.838
			c0.151,0.323,0.227,0.711,0.227,1.157c0,0.474-0.071,0.895-0.212,1.262c-0.142,0.362-0.342,0.683-0.595,0.959
			c-0.254,0.281-0.546,0.518-0.883,0.719s-0.701,0.363-1.085,0.504v0.064c0.18,0.039,0.381,0.097,0.589,0.172
			c0.214,0.075,0.421,0.188,0.621,0.331c0.198,0.141,0.392,0.324,0.563,0.547c0.176,0.22,0.309,0.492,0.414,0.809l0.812,2.521
			c0.112,0.344,0.209,0.618,0.305,0.822c0.09,0.205,0.189,0.359,0.288,0.463c0.104,0.108,0.221,0.18,0.353,0.213
			c0.128,0.032,0.298,0.051,0.493,0.051l0.035,0.567c-0.137,0.032-0.29,0.062-0.457,0.082c-0.165,0.029-0.327,0.048-0.488,0.062
			c-0.164,0.015-0.306,0.029-0.436,0.039c-0.127,0.011-0.227,0.019-0.291,0.019c-0.233,0-0.444-0.028-0.629-0.083
			c-0.18-0.053-0.347-0.151-0.494-0.283c-0.149-0.134-0.275-0.316-0.392-0.536c-0.118-0.227-0.219-0.507-0.315-0.841l-0.779-2.686
			c-0.111-0.38-0.245-0.682-0.396-0.912c-0.155-0.227-0.347-0.402-0.579-0.521c-0.229-0.115-0.507-0.197-0.835-0.241
			c-0.326-0.039-0.722-0.067-1.184-0.082L203.188,69.165z"/>
		<path fill="#635E4E" d="M227.626,66.009c-0.075-0.406-0.19-0.747-0.36-1.035c-0.161-0.291-0.362-0.531-0.604-0.723
			c-0.245-0.19-0.518-0.334-0.819-0.425c-0.305-0.09-0.633-0.132-0.987-0.132c-0.347,0-0.67,0.039-0.986,0.122
			c-0.316,0.086-0.593,0.219-0.834,0.402c-0.246,0.188-0.436,0.425-0.578,0.708c-0.142,0.28-0.216,0.626-0.216,1.021
			c0,0.35,0.084,0.651,0.251,0.909c0.17,0.253,0.396,0.472,0.678,0.655c0.282,0.187,0.607,0.356,0.975,0.499
			c0.368,0.151,0.749,0.295,1.145,0.442c0.438,0.169,0.881,0.348,1.319,0.547c0.441,0.19,0.835,0.427,1.183,0.708
			c0.349,0.28,0.635,0.618,0.848,1.014c0.216,0.395,0.328,0.88,0.328,1.459c0,0.507-0.07,0.956-0.215,1.345
			c-0.142,0.388-0.343,0.726-0.594,1.017c-0.253,0.291-0.55,0.532-0.882,0.733c-0.342,0.193-0.7,0.353-1.088,0.478
			c-0.39,0.115-0.799,0.202-1.216,0.26c-0.422,0.049-0.837,0.075-1.248,0.075c-0.493,0-0.98-0.028-1.469-0.09
			c-0.487-0.058-0.971-0.141-1.459-0.251c-0.066-0.015-0.115-0.044-0.157-0.098c-0.037-0.043-0.063-0.098-0.073-0.144
			c-0.016-0.155-0.029-0.381-0.04-0.677c-0.015-0.298-0.032-0.6-0.039-0.909c-0.011-0.309-0.019-0.585-0.029-0.838
			c-0.007-0.247-0.011-0.395-0.011-0.438l0.551-0.053c0.053,0.442,0.168,0.819,0.344,1.143c0.182,0.327,0.412,0.586,0.68,0.798
			c0.275,0.208,0.593,0.363,0.949,0.464c0.354,0.101,0.734,0.146,1.15,0.146c0.366,0,0.724-0.038,1.067-0.124
			c0.345-0.084,0.65-0.22,0.916-0.408c0.271-0.189,0.483-0.426,0.646-0.722c0.16-0.291,0.244-0.65,0.244-1.067
			c0-0.345-0.086-0.64-0.255-0.881c-0.167-0.24-0.394-0.456-0.674-0.644c-0.28-0.19-0.607-0.352-0.971-0.5
			c-0.358-0.149-0.737-0.298-1.121-0.452c-0.44-0.18-0.883-0.359-1.319-0.571c-0.442-0.198-0.837-0.442-1.187-0.73
			c-0.348-0.279-0.63-0.633-0.849-1.035c-0.216-0.413-0.321-0.909-0.321-1.498c0-0.719,0.139-1.323,0.422-1.801
			c0.281-0.485,0.651-0.874,1.112-1.173c0.455-0.287,0.977-0.495,1.564-0.625c0.581-0.121,1.181-0.187,1.788-0.187
			c0.404,0,0.841,0.032,1.32,0.093c0.479,0.063,0.925,0.145,1.342,0.249c0.065,0.018,0.117,0.042,0.156,0.097
			c0.04,0.044,0.065,0.097,0.073,0.148c0.017,0.149,0.034,0.365,0.042,0.642c0.012,0.274,0.03,0.558,0.04,0.838
			c0.018,0.28,0.027,0.536,0.038,0.767c0.004,0.227,0.014,0.358,0.014,0.405L227.626,66.009z"/>
	</g>
</g>
</svg>
