<?xml version="1.0" encoding="utf-8"?>
<!-- Generator: Adobe Illustrator 16.0.0, SVG Export Plug-In . SVG Version: 6.00 Build 0)  -->
<!DOCTYPE svg PUBLIC "-//W3C//DTD SVG 1.1//EN" "http://www.w3.org/Graphics/SVG/1.1/DTD/svg11.dtd">
<svg version="1.1" id="Layer_1" xmlns="http://www.w3.org/2000/svg" xmlns:xlink="http://www.w3.org/1999/xlink" x="0px" y="0px"
	 width="255.75px" height="73.25px" viewBox="0 0 255.75 73.25" enable-background="new 0 0 255.75 73.25" xml:space="preserve">
<g>
	<g opacity="0.2">
		<g>
			<path d="M79.744,37.478c0-11.688-9.476-21.165-21.164-21.165c-11.689,0-21.163,9.476-21.163,21.165
				c0,2.119,0.316,4.166,0.896,6.097c5.451-0.169,10.789,0.625,10.789,0.625c-0.172-1.91,0-5.065,0-5.065s0.609-11.717,11.519-8.529
				c1.882,0.596,2.591,1.207,4.287,4.511c0,0,3.104,0.579,3.527,3.884c0,0,0.269,2.098,5.805,4.13c0,0,1.318,1.584-4.756,0.535
				c0,0-4.643-1.786-6.763-0.78c-2.121,1.005-1.986,1.942,0.469,3.905c2.456,1.965,2.744,3.21,2.789,3.463
				c0.507,2.62-0.018,5.138-1.037,7.411C73.52,54.966,79.744,46.948,79.744,37.478z"/>
		</g>
	</g>
	<g opacity="0.2">
		<path d="M16.784,52.017c0,0,0.513-0.346,1.409-0.952c0.456-0.296,0.976-0.696,1.646-1.058c0.661-0.378,1.405-0.807,2.218-1.272
			c0.838-0.416,1.749-0.867,2.711-1.343c0.991-0.41,2.038-0.856,3.138-1.267c0.557-0.186,1.124-0.376,1.696-0.566
			c0.574-0.194,1.155-0.395,1.756-0.537c1.197-0.308,2.406-0.667,3.648-0.874c0.617-0.123,1.235-0.245,1.853-0.369
			c0.622-0.087,1.241-0.171,1.856-0.257c0.309-0.044,0.615-0.086,0.921-0.129l0.457-0.063l0.058-0.008l0.028-0.004l0.07-0.004
			l0.111-0.007l0.225-0.013c0.596-0.039,1.184-0.057,1.764-0.079c0.579-0.004,1.146-0.036,1.709-0.015
			c0.577,0.043,1.14,0.088,1.688,0.147c0.546,0.055,1.076,0.106,1.59,0.161c0.516,0.046,0.992,0.178,1.461,0.261
			c0.928,0.185,1.772,0.384,2.516,0.56c0.736,0.229,1.369,0.448,1.887,0.634c1.037,0.371,1.613,0.618,1.613,0.618l-0.052,0.212
			c0,0-0.637,0-1.719-0.067c-0.541-0.027-1.192-0.082-1.936-0.142c-0.751-0.017-1.593-0.036-2.504-0.084
			c-0.912-0.075-1.891-0.038-2.917-0.047c-0.516,0.002-1.04-0.008-1.58-0.024c-0.554,0.017-1.122,0.037-1.7,0.054
			c-0.58,0.004-1.17,0.015-1.767,0.003l-0.225-0.001l-0.112-0.001h-0.014c-0.015,0,0.068-0.003,0.026-0.001l-0.026,0.001
			l-0.054,0.004l-0.441,0.022c-0.296,0.015-0.593,0.026-0.891,0.044c-0.594,0.027-1.197,0.05-1.801,0.093
			c-0.601,0.073-1.201,0.146-1.804,0.22c-1.214,0.119-2.398,0.39-3.578,0.61c-0.591,0.1-1.166,0.256-1.733,0.407
			c-0.57,0.151-1.133,0.296-1.687,0.442c-1.096,0.325-2.137,0.708-3.143,1.019c-0.979,0.386-1.905,0.75-2.762,1.089
			c-0.833,0.386-1.596,0.743-2.271,1.058c-0.686,0.302-1.248,0.656-1.73,0.902c-0.953,0.514-1.497,0.809-1.497,0.809L16.784,52.017z
			"/>
	</g>
	<path opacity="0.2" enable-background="new    " d="M16.816,52.242c0,0-0.518-0.99-1.252-2.494
		c-0.371-0.749-0.806-1.621-1.252-2.566c-0.458-0.939-0.914-1.953-1.381-2.96c-0.456-1.016-1.025-1.985-1.411-2.952
		c-0.371-0.975-0.61-1.923-0.773-2.752c-0.155-0.832-0.248-1.541-0.268-2.052c-0.029-0.508-0.011-0.813-0.011-0.813l0.204-0.078
		c0,0,0.218,0.213,0.535,0.612c0.326,0.395,0.73,0.983,1.17,1.707c0.432,0.727,0.887,1.591,1.259,2.564
		c0.358,0.978,0.583,2.079,0.919,3.139c0.328,1.063,0.664,2.124,0.949,3.127c0.298,1,0.559,1.941,0.783,2.748
		c0.456,1.607,0.73,2.691,0.73,2.691L16.816,52.242z"/>
	<g>
		<g>
			<path fill="#FFFFFF" d="M79.017,36.75c0-11.688-9.476-21.164-21.164-21.164S36.689,25.062,36.689,36.75
				c0,2.119,0.316,4.166,0.896,6.097c5.45-0.169,10.79,0.625,10.79,0.625c-0.173-1.909,0-5.065,0-5.065s0.608-11.717,11.519-8.529
				c1.882,0.596,2.591,1.207,4.286,4.51c0,0,3.103,0.58,3.526,3.885c0,0,0.269,2.098,5.806,4.129c0,0,1.318,1.585-4.755,0.535
				c0,0-4.644-1.786-6.764-0.78c-2.121,1.005-1.987,1.942,0.469,3.905c2.456,1.965,2.743,3.211,2.789,3.463
				c0.507,2.621-0.018,5.139-1.036,7.411C72.793,54.238,79.017,46.221,79.017,36.75z"/>
		</g>
	</g>
	<g>
		<path fill="#FFFFFF" d="M16.056,51.289c0,0,0.513-0.346,1.41-0.952c0.456-0.295,0.976-0.695,1.646-1.057
			c0.661-0.379,1.406-0.807,2.219-1.272c0.838-0.417,1.749-0.866,2.71-1.342c0.991-0.411,2.038-0.856,3.138-1.268
			c0.557-0.187,1.124-0.377,1.696-0.566c0.574-0.194,1.155-0.395,1.757-0.536c1.196-0.309,2.405-0.668,3.647-0.874
			c0.617-0.124,1.235-0.246,1.853-0.37c0.622-0.086,1.241-0.171,1.856-0.257c0.309-0.044,0.615-0.086,0.921-0.129l0.457-0.063
			l0.058-0.008l0.028-0.003l0.069-0.004l0.112-0.007l0.224-0.013c0.597-0.039,1.185-0.057,1.765-0.08
			c0.579-0.004,1.146-0.036,1.709-0.015c0.577,0.043,1.14,0.088,1.688,0.147c0.545,0.055,1.077,0.106,1.59,0.161
			c0.515,0.046,0.992,0.178,1.46,0.261c0.929,0.186,1.773,0.384,2.517,0.56c0.736,0.229,1.369,0.447,1.887,0.634
			c1.038,0.371,1.612,0.618,1.612,0.618l-0.051,0.212c0,0-0.637,0-1.718-0.067c-0.542-0.027-1.193-0.083-1.937-0.142
			c-0.75-0.017-1.593-0.036-2.504-0.085c-0.912-0.074-1.891-0.037-2.917-0.047c-0.515,0.003-1.04-0.007-1.579-0.024
			c-0.555,0.017-1.124,0.037-1.701,0.054c-0.58,0.004-1.17,0.015-1.767,0.003l-0.224-0.001l-0.113-0.002h-0.014
			c-0.015,0,0.068-0.002,0.026-0.001l-0.026,0.001l-0.055,0.004l-0.44,0.022c-0.296,0.015-0.592,0.027-0.891,0.044
			c-0.594,0.027-1.197,0.05-1.801,0.094c-0.601,0.073-1.201,0.146-1.804,0.219c-1.214,0.119-2.398,0.39-3.578,0.61
			c-0.591,0.1-1.166,0.256-1.733,0.407c-0.569,0.151-1.133,0.297-1.687,0.442c-1.096,0.325-2.137,0.708-3.143,1.019
			c-0.979,0.386-1.906,0.75-2.762,1.089c-0.833,0.387-1.596,0.743-2.271,1.059c-0.687,0.301-1.248,0.655-1.729,0.9
			c-0.954,0.515-1.498,0.81-1.498,0.81L16.056,51.289z"/>
	</g>
	<path fill="#FFFFFF" d="M16.088,51.515c0,0-0.519-0.99-1.252-2.494c-0.371-0.749-0.806-1.621-1.251-2.566
		c-0.458-0.939-0.915-1.952-1.381-2.96c-0.457-1.015-1.025-1.986-1.411-2.952c-0.372-0.975-0.61-1.923-0.773-2.752
		c-0.155-0.832-0.248-1.54-0.268-2.051c-0.03-0.509-0.01-0.813-0.01-0.813l0.203-0.078c0,0,0.219,0.213,0.535,0.613
		c0.326,0.395,0.73,0.983,1.17,1.707c0.432,0.727,0.887,1.591,1.259,2.564c0.358,0.977,0.583,2.079,0.92,3.138
		c0.327,1.064,0.664,2.124,0.949,3.128c0.298,1,0.559,1.94,0.782,2.747c0.457,1.608,0.731,2.691,0.731,2.691L16.088,51.515z"/>
</g>
<g>
	<g opacity="0.2">
		<path d="M100.676,33.365c0.879,0,1.678,0.135,2.387,0.409c0.711,0.275,1.317,0.669,1.82,1.183
			c0.503,0.517,0.892,1.149,1.167,1.899c0.271,0.753,0.408,1.608,0.408,2.555c0,1.037-0.152,1.957-0.457,2.754
			c-0.304,0.8-0.736,1.471-1.298,2.014c-0.56,0.543-1.234,0.962-2.022,1.246c-0.792,0.284-1.673,0.425-2.642,0.425
			c-0.883,0-1.683-0.141-2.396-0.425c-0.715-0.285-1.321-0.69-1.827-1.216c-0.5-0.53-0.888-1.172-1.157-1.928
			c-0.272-0.753-0.405-1.611-0.405-2.575c0-1.035,0.152-1.949,0.455-2.74c0.306-0.795,0.737-1.458,1.298-1.986
			c0.562-0.538,1.234-0.94,2.027-1.212C98.823,33.5,99.704,33.365,100.676,33.365z M100.162,34.227c-0.67,0-1.246,0.135-1.724,0.409
			c-0.477,0.275-0.87,0.642-1.174,1.1c-0.306,0.461-0.527,0.984-0.671,1.579c-0.145,0.599-0.215,1.214-0.215,1.857
			c0,0.718,0.074,1.424,0.231,2.121c0.152,0.698,0.396,1.319,0.73,1.865c0.336,0.547,0.768,0.991,1.303,1.327
			c0.534,0.342,1.179,0.509,1.929,0.509c0.67,0,1.243-0.14,1.72-0.427c0.479-0.283,0.874-0.659,1.177-1.128
			c0.303-0.465,0.527-1.004,0.671-1.609c0.147-0.607,0.217-1.229,0.217-1.874c0-0.717-0.077-1.421-0.23-2.11
			c-0.155-0.688-0.4-1.302-0.735-1.837c-0.334-0.538-0.771-0.967-1.301-1.296C101.555,34.39,100.912,34.227,100.162,34.227z"/>
		<path d="M114.957,33.814c0.301-0.061,0.598-0.109,0.89-0.158c0.296-0.043,0.566-0.08,0.807-0.114
			c0.242-0.03,0.447-0.048,0.615-0.07c0.169-0.017,0.278-0.024,0.323-0.024c0.102,0,0.18,0.033,0.233,0.084
			c0.05,0.061,0.108,0.147,0.179,0.263l2.419,4.101l2.489-3.929c0-0.003,0.004-0.007,0.007-0.007c0.005,0,0.005-0.006,0.005-0.01
			c0.053-0.074,0.104-0.134,0.146-0.176c0.046-0.039,0.117-0.075,0.211-0.102c0.096-0.031,0.197-0.048,0.31-0.063
			c0.105-0.011,0.216-0.029,0.317-0.038c0.103-0.009,0.196-0.018,0.282-0.022c0.088-0.001,0.153-0.005,0.201-0.005
			c0.13,0,0.195,0.041,0.195,0.131c0,0.06-0.019,0.116-0.063,0.168l-3.497,5.076l3.744,6.33c0.028,0.031,0.041,0.07,0.041,0.123
			c0,0.109-0.07,0.175-0.204,0.194c-0.119,0.021-0.256,0.035-0.417,0.053c-0.161,0.021-0.318,0.034-0.477,0.042
			c-0.157,0.012-0.297,0.018-0.43,0.021c-0.13,0.004-0.225,0.004-0.277,0.004c-0.115,0-0.207-0.051-0.276-0.165l-2.975-5.015
			l-2.963,4.736c-0.05,0.077-0.099,0.141-0.149,0.186c-0.052,0.049-0.125,0.085-0.22,0.112c-0.098,0.029-0.199,0.046-0.312,0.067
			c-0.111,0.017-0.224,0.028-0.327,0.036c-0.109,0.005-0.207,0.009-0.294,0.013c-0.09,0.003-0.157,0.005-0.206,0.005
			c-0.129,0-0.195-0.043-0.195-0.131c0-0.057,0.02-0.107,0.063-0.166l3.988-5.898l-2.604-4.4c-0.181-0.291-0.35-0.487-0.508-0.588
			c-0.16-0.101-0.351-0.148-0.569-0.148c-0.07,0-0.14,0.004-0.21,0.011c-0.071,0.005-0.149,0.017-0.23,0.03L114.957,33.814z"/>
		<path d="M135.828,33.449c0.101,0,0.181,0.034,0.246,0.091c0.06,0.06,0.122,0.147,0.182,0.265l2.912,5.229l2.482-5.052
			c0.042-0.083,0.087-0.146,0.134-0.193c0.05-0.044,0.117-0.086,0.215-0.108c0.098-0.032,0.198-0.049,0.309-0.063
			c0.109-0.014,0.215-0.03,0.316-0.037c0.103-0.01,0.198-0.019,0.283-0.022c0.088-0.002,0.153-0.005,0.2-0.005
			c0.121,0,0.182,0.041,0.182,0.121c0,0.028-0.004,0.052-0.02,0.08c-0.012,0.032-0.027,0.061-0.041,0.095l-3.682,6.177v5.26
			c0,0.164-0.08,0.257-0.245,0.286c-0.116,0.021-0.246,0.039-0.384,0.056c-0.141,0.019-0.277,0.032-0.412,0.038
			c-0.135,0.012-0.255,0.022-0.368,0.022c-0.111,0.003-0.198,0.006-0.252,0.006c-0.164,0-0.248-0.088-0.248-0.255V40.21
			l-2.838-5.067c-0.171-0.31-0.334-0.524-0.483-0.642c-0.15-0.117-0.337-0.177-0.555-0.177c-0.055,0-0.119,0.003-0.183,0.017
			c-0.069,0.008-0.147,0.02-0.234,0.034l-0.064-0.563c0.299-0.064,0.59-0.111,0.876-0.159c0.287-0.045,0.546-0.082,0.773-0.112
			c0.233-0.032,0.429-0.049,0.587-0.067C135.676,33.452,135.777,33.449,135.828,33.449z"/>
		<path d="M155.479,34.502c-0.444,0-0.813,0.012-1.104,0.036c-0.289,0.03-0.531,0.107-0.722,0.241
			c-0.189,0.133-0.352,0.344-0.479,0.631c-0.122,0.286-0.247,0.687-0.36,1.206l-0.514-0.049c0-0.028,0-0.105,0.003-0.226
			c0.003-0.123,0.01-0.27,0.021-0.442c0.008-0.173,0.022-0.359,0.031-0.562c0.012-0.206,0.022-0.407,0.036-0.602
			c0.014-0.197,0.027-0.376,0.04-0.541c0.017-0.173,0.027-0.303,0.043-0.394c0.006-0.103,0.069-0.155,0.186-0.155
			c0.62,0.017,1.217,0.027,1.785,0.037c0.567,0.007,1.09,0.007,1.569,0.007h3.414c0.479,0,1.004,0,1.578-0.007
			c0.576-0.007,1.172-0.017,1.796-0.037c0.099,0,0.151,0.052,0.164,0.155c0.015,0.097,0.025,0.231,0.035,0.394
			c0.01,0.167,0.021,0.344,0.032,0.541c0.009,0.191,0.016,0.394,0.023,0.602c0.009,0.203,0.013,0.393,0.014,0.562
			c0.005,0.174,0.008,0.322,0.012,0.442c0.005,0.121,0.005,0.197,0.005,0.226l-0.511,0.049c-0.116-0.519-0.235-0.92-0.356-1.206
			c-0.115-0.287-0.27-0.498-0.456-0.631c-0.182-0.134-0.419-0.212-0.7-0.241c-0.282-0.024-0.65-0.036-1.104-0.036h-1.313v10.779
			c0,0.164-0.081,0.258-0.243,0.286c-0.117,0.021-0.247,0.038-0.388,0.055c-0.141,0.019-0.273,0.032-0.412,0.039
			c-0.13,0.015-0.253,0.021-0.365,0.025c-0.112,0.003-0.198,0.003-0.252,0.003c-0.164,0-0.243-0.084-0.243-0.255V34.502H155.479z"/>
		<path d="M178.177,33.365c0.882,0,1.681,0.135,2.386,0.409c0.715,0.275,1.325,0.669,1.826,1.183
			c0.503,0.517,0.891,1.149,1.168,1.899c0.268,0.753,0.406,1.608,0.406,2.555c0,1.037-0.148,1.957-0.455,2.754
			c-0.307,0.8-0.743,1.471-1.301,2.014c-0.557,0.543-1.233,0.962-2.025,1.246c-0.788,0.284-1.673,0.425-2.642,0.425
			c-0.884,0-1.681-0.141-2.396-0.425c-0.714-0.285-1.324-0.69-1.823-1.216c-0.5-0.53-0.89-1.172-1.159-1.928
			c-0.269-0.753-0.406-1.611-0.406-2.575c0-1.035,0.155-1.949,0.46-2.74c0.304-0.795,0.734-1.458,1.296-1.986
			c0.562-0.538,1.238-0.94,2.027-1.212C176.327,33.5,177.204,33.365,178.177,33.365z M177.664,34.227
			c-0.668,0-1.245,0.135-1.723,0.409c-0.479,0.275-0.868,0.642-1.173,1.1c-0.305,0.461-0.531,0.984-0.677,1.579
			c-0.143,0.599-0.214,1.214-0.214,1.857c0,0.718,0.074,1.424,0.232,2.121c0.155,0.698,0.396,1.319,0.734,1.865
			c0.336,0.547,0.768,0.991,1.303,1.327c0.535,0.342,1.179,0.509,1.929,0.509c0.67,0,1.244-0.14,1.722-0.427
			c0.479-0.283,0.872-0.659,1.176-1.128c0.304-0.465,0.532-1.004,0.675-1.609c0.143-0.607,0.214-1.229,0.214-1.874
			c0-0.717-0.081-1.421-0.232-2.11c-0.154-0.688-0.396-1.302-0.734-1.837c-0.335-0.538-0.771-0.967-1.303-1.296
			C179.059,34.39,178.415,34.227,177.664,34.227z"/>
		<path d="M196.63,41.815c-0.007,0.51,0.057,0.942,0.192,1.294c0.139,0.355,0.326,0.636,0.576,0.854
			c0.247,0.215,0.531,0.37,0.859,0.464c0.326,0.093,0.684,0.14,1.066,0.14c0.494,0,0.976-0.084,1.451-0.238
			c0.476-0.158,0.95-0.352,1.419-0.587v-9.781c0-0.157,0.083-0.254,0.247-0.288c0.109-0.026,0.239-0.037,0.38-0.05
			s0.277-0.027,0.411-0.037c0.135-0.008,0.259-0.019,0.376-0.023c0.11-0.007,0.194-0.013,0.252-0.013
			c0.164,0,0.249,0.086,0.249,0.257v11.476c0,0.165-0.085,0.259-0.249,0.286c-0.113,0.021-0.243,0.041-0.375,0.058
			c-0.132,0.017-0.262,0.029-0.392,0.037c-0.126,0.013-0.242,0.024-0.344,0.024c-0.103,0.003-0.177,0.006-0.237,0.006
			c-0.158,0-0.24-0.088-0.246-0.257l-0.075-0.841c-0.642,0.355-1.318,0.652-2.021,0.89c-0.709,0.238-1.423,0.352-2.149,0.352
			c-0.453,0-0.878-0.057-1.28-0.179c-0.403-0.119-0.751-0.317-1.053-0.566c-0.297-0.25-0.536-0.576-0.704-0.969
			c-0.177-0.392-0.264-0.857-0.264-1.394v-7.447c0-0.191-0.018-0.349-0.052-0.466c-0.035-0.115-0.097-0.215-0.166-0.281
			c-0.071-0.071-0.158-0.112-0.255-0.145c-0.105-0.028-0.212-0.036-0.332-0.036c-0.138,0-0.285,0.01-0.453,0.033l-0.063-0.563
			c0.374-0.067,0.72-0.127,1.053-0.179c0.328-0.042,0.622-0.084,0.882-0.109c0.256-0.03,0.469-0.045,0.643-0.061
			c0.171-0.013,0.28-0.02,0.328-0.02c0.216,0,0.325,0.108,0.325,0.322V41.815L196.63,41.815z"/>
		<path d="M218.247,39.405c0.527-0.037,0.994-0.108,1.394-0.225c0.405-0.117,0.741-0.285,1.014-0.51
			c0.268-0.221,0.473-0.503,0.612-0.844c0.138-0.342,0.208-0.756,0.208-1.245c0-0.401-0.074-0.752-0.229-1.054
			c-0.149-0.304-0.354-0.548-0.62-0.746c-0.269-0.193-0.58-0.34-0.948-0.435c-0.362-0.099-0.752-0.145-1.165-0.145
			c-0.275,0-0.481,0.022-0.614,0.069c-0.139,0.041-0.207,0.168-0.207,0.373v10.635c0,0.164-0.081,0.255-0.245,0.287
			c-0.118,0.02-0.248,0.035-0.39,0.053c-0.141,0.021-0.276,0.034-0.405,0.042c-0.139,0.011-0.256,0.018-0.376,0.021
			c-0.109,0.003-0.194,0.003-0.252,0.003c-0.164,0-0.247-0.084-0.247-0.252V35.145c0-0.335-0.075-0.568-0.227-0.68
			c-0.149-0.11-0.345-0.171-0.585-0.171c-0.136,0-0.288,0.014-0.453,0.034l-0.06-0.563c0.678-0.116,1.394-0.213,2.129-0.295
			c0.73-0.077,1.482-0.114,2.252-0.114c0.325,0,0.674,0.013,1.036,0.04c0.366,0.027,0.717,0.078,1.068,0.154
			c0.348,0.076,0.682,0.178,0.994,0.312c0.313,0.134,0.593,0.312,0.824,0.526c0.232,0.214,0.425,0.473,0.563,0.781
			c0.141,0.302,0.21,0.664,0.21,1.08c0,0.442-0.065,0.834-0.197,1.178c-0.132,0.337-0.317,0.637-0.555,0.894
			c-0.236,0.262-0.508,0.483-0.822,0.672c-0.316,0.186-0.653,0.337-1.013,0.467v0.061c0.168,0.037,0.355,0.091,0.55,0.161
			c0.199,0.071,0.392,0.176,0.579,0.31c0.186,0.129,0.364,0.302,0.524,0.508c0.163,0.206,0.289,0.459,0.387,0.754l0.756,2.349
			c0.105,0.324,0.196,0.577,0.285,0.768c0.085,0.191,0.176,0.337,0.269,0.434c0.096,0.098,0.206,0.167,0.327,0.196
			c0.121,0.03,0.279,0.047,0.461,0.047l0.032,0.531c-0.127,0.028-0.27,0.055-0.426,0.077c-0.154,0.025-0.305,0.042-0.456,0.057
			c-0.152,0.014-0.285,0.025-0.405,0.035c-0.119,0.01-0.212,0.017-0.271,0.017c-0.219,0-0.414-0.027-0.587-0.076
			c-0.167-0.049-0.324-0.142-0.46-0.263c-0.14-0.126-0.258-0.298-0.366-0.502c-0.108-0.208-0.201-0.47-0.293-0.784l-0.728-2.502
			c-0.104-0.356-0.228-0.639-0.368-0.852c-0.145-0.211-0.324-0.377-0.54-0.488c-0.214-0.107-0.473-0.184-0.779-0.225
			c-0.303-0.037-0.672-0.064-1.104-0.075L218.247,39.405z"/>
		<path d="M241.037,36.462c-0.07-0.377-0.178-0.695-0.336-0.965c-0.15-0.271-0.338-0.495-0.563-0.674
			c-0.229-0.177-0.482-0.312-0.764-0.394c-0.283-0.085-0.591-0.126-0.921-0.126c-0.324,0-0.625,0.038-0.92,0.116
			c-0.294,0.079-0.553,0.204-0.777,0.375c-0.23,0.173-0.406,0.394-0.541,0.659c-0.131,0.263-0.201,0.583-0.201,0.952
			c0,0.325,0.08,0.607,0.234,0.848c0.158,0.235,0.37,0.44,0.633,0.612s0.565,0.33,0.909,0.465c0.343,0.141,0.698,0.274,1.067,0.412
			c0.408,0.157,0.821,0.326,1.229,0.509c0.412,0.179,0.779,0.398,1.102,0.662c0.327,0.259,0.593,0.575,0.792,0.943
			c0.202,0.37,0.306,0.821,0.306,1.363c0,0.471-0.065,0.89-0.199,1.252c-0.133,0.362-0.319,0.678-0.556,0.951
			c-0.233,0.269-0.51,0.494-0.82,0.681c-0.319,0.182-0.654,0.331-1.015,0.445c-0.363,0.11-0.745,0.189-1.134,0.242
			c-0.394,0.047-0.782,0.072-1.163,0.072c-0.462,0-0.916-0.028-1.371-0.084c-0.455-0.053-0.904-0.131-1.361-0.236
			c-0.06-0.013-0.107-0.04-0.146-0.088c-0.036-0.043-0.06-0.091-0.068-0.137c-0.017-0.144-0.028-0.355-0.037-0.629
			c-0.015-0.279-0.03-0.56-0.037-0.848c-0.009-0.289-0.017-0.546-0.026-0.779c-0.008-0.233-0.011-0.371-0.011-0.41l0.514-0.052
			c0.049,0.413,0.158,0.766,0.321,1.066c0.17,0.305,0.384,0.547,0.633,0.744c0.257,0.194,0.554,0.339,0.885,0.433
			c0.331,0.093,0.686,0.137,1.073,0.137c0.342,0,0.675-0.037,0.996-0.116c0.322-0.077,0.606-0.206,0.854-0.381
			c0.251-0.175,0.451-0.397,0.601-0.673c0.151-0.272,0.229-0.605,0.229-0.996c0-0.322-0.082-0.595-0.238-0.82
			c-0.156-0.226-0.367-0.426-0.629-0.602c-0.261-0.175-0.566-0.328-0.904-0.467c-0.336-0.139-0.688-0.276-1.047-0.422
			c-0.411-0.167-0.822-0.335-1.229-0.532c-0.413-0.183-0.781-0.411-1.107-0.679c-0.325-0.263-0.588-0.59-0.79-0.967
			c-0.201-0.383-0.301-0.847-0.301-1.397c0-0.67,0.13-1.232,0.395-1.68c0.262-0.453,0.606-0.814,1.035-1.091
			c0.426-0.27,0.912-0.464,1.461-0.583c0.54-0.116,1.1-0.176,1.667-0.176c0.377,0,0.784,0.03,1.23,0.088
			c0.446,0.055,0.863,0.135,1.252,0.229c0.061,0.017,0.109,0.041,0.146,0.091c0.038,0.042,0.061,0.091,0.068,0.137
			c0.016,0.141,0.033,0.344,0.039,0.6c0.011,0.255,0.028,0.521,0.036,0.781c0.017,0.261,0.027,0.5,0.038,0.714
			c0.003,0.212,0.012,0.335,0.012,0.38L241.037,36.462z"/>
	</g>
	<g>
		<path fill="#FFFFFF" d="M98.961,31.649c0.879,0,1.676,0.135,2.386,0.409c0.71,0.274,1.316,0.668,1.819,1.183
			c0.503,0.516,0.892,1.149,1.167,1.899c0.271,0.752,0.409,1.607,0.409,2.555c0,1.037-0.153,1.957-0.458,2.752
			c-0.304,0.803-0.735,1.473-1.297,2.015c-0.561,0.543-1.235,0.962-2.022,1.244c-0.792,0.286-1.674,0.427-2.643,0.427
			c-0.883,0-1.681-0.141-2.394-0.427c-0.718-0.283-1.323-0.688-1.83-1.214c-0.499-0.53-0.887-1.174-1.155-1.93
			c-0.271-0.752-0.406-1.61-0.406-2.574c0-1.035,0.152-1.949,0.456-2.74c0.305-0.794,0.737-1.458,1.298-1.986
			c0.561-0.538,1.232-0.94,2.027-1.212C97.106,31.785,97.988,31.649,98.961,31.649z M98.446,32.511c-0.67,0-1.247,0.136-1.724,0.409
			c-0.479,0.274-0.871,0.642-1.174,1.1c-0.307,0.46-0.528,0.983-0.672,1.578c-0.144,0.599-0.215,1.213-0.215,1.857
			c0,0.718,0.074,1.425,0.232,2.12c0.151,0.7,0.395,1.319,0.73,1.866c0.335,0.547,0.768,0.99,1.303,1.326
			c0.534,0.343,1.178,0.51,1.927,0.51c0.671,0,1.245-0.14,1.721-0.427c0.479-0.284,0.874-0.658,1.177-1.128
			c0.303-0.465,0.529-1.003,0.671-1.608c0.146-0.609,0.217-1.23,0.217-1.874c0-0.718-0.077-1.421-0.23-2.11
			c-0.155-0.689-0.398-1.303-0.735-1.837c-0.333-0.538-0.77-0.967-1.3-1.295C99.84,32.674,99.195,32.511,98.446,32.511z"/>
		<path fill="#FFFFFF" d="M113.24,32.098c0.3-0.061,0.599-0.109,0.891-0.158c0.295-0.043,0.566-0.081,0.806-0.114
			c0.243-0.03,0.447-0.049,0.615-0.07c0.169-0.017,0.278-0.023,0.324-0.023c0.103,0,0.179,0.031,0.232,0.083
			c0.052,0.06,0.108,0.148,0.18,0.264l2.419,4.101l2.488-3.929c0-0.003,0.004-0.006,0.008-0.006c0.003,0,0.003-0.007,0.003-0.01
			c0.055-0.073,0.104-0.134,0.148-0.176c0.047-0.038,0.117-0.075,0.211-0.102c0.097-0.03,0.198-0.046,0.309-0.063
			c0.107-0.01,0.216-0.028,0.319-0.037c0.101-0.01,0.195-0.019,0.279-0.022c0.089-0.001,0.155-0.004,0.201-0.004
			c0.131,0,0.197,0.04,0.197,0.131c0,0.06-0.019,0.116-0.063,0.167l-3.496,5.077l3.743,6.331c0.028,0.029,0.041,0.069,0.041,0.122
			c0,0.108-0.07,0.176-0.204,0.194c-0.118,0.02-0.257,0.035-0.419,0.052c-0.159,0.022-0.317,0.035-0.475,0.042
			c-0.158,0.011-0.298,0.018-0.43,0.021c-0.131,0.003-0.225,0.003-0.278,0.003c-0.115,0-0.208-0.05-0.276-0.164l-2.974-5.015
			l-2.964,4.736c-0.049,0.077-0.098,0.142-0.148,0.187c-0.053,0.048-0.126,0.085-0.221,0.111c-0.097,0.029-0.199,0.045-0.312,0.068
			c-0.11,0.017-0.223,0.029-0.327,0.034c-0.109,0.005-0.206,0.01-0.292,0.014c-0.092,0.003-0.158,0.005-0.208,0.005
			c-0.129,0-0.194-0.044-0.194-0.131c0-0.057,0.02-0.107,0.063-0.165l3.99-5.898l-2.605-4.399c-0.18-0.292-0.349-0.488-0.508-0.588
			c-0.159-0.101-0.351-0.147-0.567-0.147c-0.071,0-0.143,0.003-0.212,0.009c-0.071,0.005-0.148,0.017-0.229,0.03L113.24,32.098z"/>
		<path fill="#FFFFFF" d="M134.112,31.733c0.1,0,0.181,0.033,0.244,0.09c0.061,0.061,0.124,0.148,0.183,0.266l2.913,5.229
			l2.482-5.051c0.041-0.084,0.087-0.146,0.133-0.194c0.049-0.044,0.119-0.085,0.215-0.107c0.099-0.033,0.198-0.049,0.309-0.064
			c0.109-0.014,0.216-0.03,0.317-0.037c0.102-0.01,0.197-0.019,0.283-0.021c0.088-0.002,0.152-0.005,0.199-0.005
			c0.122,0,0.183,0.04,0.183,0.121c0,0.029-0.004,0.052-0.02,0.081c-0.012,0.032-0.027,0.061-0.041,0.096l-3.682,6.176v5.259
			c0,0.164-0.081,0.258-0.247,0.287c-0.114,0.021-0.243,0.039-0.381,0.056c-0.143,0.018-0.278,0.032-0.413,0.039
			c-0.134,0.012-0.254,0.021-0.369,0.021c-0.109,0.004-0.198,0.007-0.251,0.007c-0.164,0-0.248-0.087-0.248-0.255v-5.229
			l-2.839-5.066c-0.171-0.311-0.332-0.525-0.482-0.642c-0.15-0.117-0.337-0.177-0.557-0.177c-0.054,0-0.117,0.003-0.182,0.017
			c-0.069,0.008-0.147,0.02-0.234,0.033l-0.063-0.563c0.297-0.064,0.588-0.11,0.874-0.16c0.288-0.045,0.547-0.082,0.773-0.112
			c0.235-0.032,0.43-0.048,0.587-0.066C133.959,31.736,134.062,31.733,134.112,31.733z"/>
		<path fill="#FFFFFF" d="M153.762,32.787c-0.442,0-0.813,0.011-1.103,0.035c-0.288,0.03-0.532,0.107-0.722,0.241
			c-0.191,0.132-0.352,0.343-0.479,0.63c-0.123,0.287-0.247,0.688-0.36,1.207l-0.515-0.048c0-0.029,0-0.106,0.004-0.227
			c0.003-0.123,0.01-0.27,0.02-0.442c0.009-0.172,0.021-0.358,0.032-0.561c0.012-0.207,0.021-0.408,0.036-0.603
			c0.013-0.197,0.028-0.377,0.039-0.542c0.018-0.172,0.026-0.303,0.044-0.394c0.006-0.102,0.068-0.154,0.184-0.154
			c0.623,0.017,1.219,0.027,1.787,0.038c0.567,0.006,1.09,0.006,1.569,0.006h3.414c0.479,0,1.003,0,1.577-0.006
			c0.576-0.007,1.173-0.018,1.796-0.038c0.098,0,0.151,0.052,0.165,0.154c0.016,0.097,0.024,0.232,0.036,0.394
			c0.009,0.168,0.021,0.344,0.029,0.542c0.011,0.191,0.018,0.395,0.024,0.603c0.009,0.202,0.014,0.392,0.016,0.561
			c0.005,0.175,0.007,0.322,0.011,0.442c0.004,0.121,0.004,0.198,0.004,0.227l-0.511,0.048c-0.115-0.52-0.234-0.92-0.354-1.207
			c-0.116-0.287-0.271-0.498-0.457-0.63c-0.183-0.134-0.419-0.213-0.7-0.241c-0.283-0.024-0.65-0.035-1.104-0.035h-1.313v10.778
			c0,0.165-0.082,0.258-0.244,0.287c-0.117,0.02-0.246,0.039-0.387,0.055c-0.141,0.019-0.274,0.032-0.412,0.039
			c-0.131,0.015-0.253,0.021-0.365,0.025c-0.112,0.004-0.198,0.004-0.252,0.004c-0.164,0-0.245-0.084-0.245-0.255V32.787H153.762z"
			/>
		<path fill="#FFFFFF" d="M176.461,31.649c0.881,0,1.682,0.135,2.387,0.409c0.713,0.274,1.324,0.668,1.825,1.183
			c0.502,0.516,0.891,1.149,1.169,1.899c0.267,0.752,0.404,1.607,0.404,2.555c0,1.037-0.148,1.957-0.455,2.752
			c-0.307,0.803-0.741,1.473-1.301,2.015c-0.557,0.543-1.233,0.962-2.025,1.244c-0.787,0.286-1.673,0.427-2.641,0.427
			c-0.884,0-1.681-0.141-2.396-0.427c-0.715-0.283-1.325-0.688-1.823-1.214c-0.501-0.53-0.891-1.174-1.16-1.93
			c-0.269-0.752-0.405-1.61-0.405-2.574c0-1.035,0.154-1.949,0.458-2.74c0.306-0.794,0.736-1.458,1.298-1.986
			c0.563-0.538,1.237-0.94,2.028-1.212C174.61,31.785,175.488,31.649,176.461,31.649z M175.948,32.511
			c-0.669,0-1.247,0.136-1.723,0.409c-0.479,0.274-0.869,0.642-1.174,1.1c-0.306,0.46-0.53,0.983-0.676,1.578
			c-0.144,0.599-0.215,1.213-0.215,1.857c0,0.718,0.075,1.425,0.234,2.12c0.153,0.7,0.396,1.319,0.733,1.866
			c0.336,0.547,0.768,0.99,1.303,1.326c0.534,0.343,1.178,0.51,1.929,0.51c0.669,0,1.243-0.14,1.722-0.427
			c0.479-0.284,0.871-0.658,1.175-1.128c0.304-0.465,0.531-1.003,0.675-1.608c0.144-0.609,0.215-1.23,0.215-1.874
			c0-0.718-0.082-1.421-0.232-2.11c-0.154-0.689-0.396-1.303-0.735-1.837c-0.335-0.538-0.771-0.967-1.302-1.295
			C177.342,32.674,176.7,32.511,175.948,32.511z"/>
		<path fill="#FFFFFF" d="M194.914,40.099c-0.007,0.51,0.057,0.942,0.192,1.294c0.139,0.355,0.326,0.637,0.576,0.855
			c0.247,0.214,0.531,0.369,0.858,0.464c0.326,0.092,0.686,0.139,1.067,0.139c0.494,0,0.976-0.084,1.451-0.237
			c0.475-0.158,0.949-0.352,1.419-0.587v-9.781c0-0.157,0.083-0.254,0.248-0.289c0.108-0.025,0.237-0.037,0.378-0.05
			c0.141-0.013,0.278-0.026,0.412-0.037c0.135-0.008,0.259-0.018,0.375-0.023c0.112-0.007,0.194-0.012,0.253-0.012
			c0.163,0,0.249,0.086,0.249,0.257v11.475c0,0.164-0.086,0.26-0.249,0.287c-0.114,0.02-0.243,0.041-0.376,0.057
			c-0.132,0.016-0.261,0.03-0.391,0.037c-0.126,0.014-0.243,0.023-0.344,0.023c-0.104,0.004-0.177,0.007-0.238,0.007
			c-0.156,0-0.24-0.087-0.245-0.256l-0.074-0.841c-0.642,0.355-1.318,0.651-2.023,0.89c-0.709,0.238-1.423,0.352-2.148,0.352
			c-0.453,0-0.879-0.057-1.281-0.179c-0.403-0.119-0.749-0.317-1.052-0.567c-0.297-0.25-0.536-0.574-0.704-0.966
			c-0.178-0.393-0.265-0.858-0.265-1.395v-7.448c0-0.191-0.017-0.349-0.052-0.466c-0.035-0.115-0.096-0.214-0.166-0.281
			c-0.069-0.071-0.158-0.112-0.255-0.145c-0.104-0.028-0.211-0.037-0.332-0.037c-0.138,0-0.284,0.01-0.452,0.033l-0.063-0.563
			c0.374-0.067,0.719-0.127,1.053-0.18c0.327-0.042,0.623-0.083,0.881-0.108c0.256-0.03,0.469-0.045,0.643-0.06
			c0.171-0.014,0.281-0.02,0.328-0.02c0.218,0,0.326,0.107,0.326,0.322V40.099L194.914,40.099z"/>
		<path fill="#FFFFFF" d="M216.531,37.69c0.526-0.037,0.994-0.109,1.395-0.225c0.402-0.117,0.74-0.285,1.012-0.51
			c0.269-0.221,0.475-0.502,0.613-0.844c0.137-0.342,0.209-0.756,0.209-1.245c0-0.401-0.076-0.752-0.229-1.054
			c-0.15-0.304-0.354-0.548-0.62-0.746c-0.269-0.193-0.582-0.34-0.949-0.436c-0.361-0.099-0.752-0.144-1.166-0.144
			c-0.275,0-0.479,0.022-0.613,0.068c-0.139,0.041-0.206,0.168-0.206,0.373v10.635c0,0.165-0.081,0.254-0.246,0.286
			c-0.117,0.021-0.247,0.036-0.39,0.052c-0.14,0.023-0.277,0.036-0.405,0.043c-0.138,0.011-0.256,0.019-0.375,0.021
			c-0.11,0.004-0.194,0.004-0.251,0.004c-0.165,0-0.248-0.083-0.248-0.251V33.429c0-0.335-0.076-0.569-0.227-0.681
			c-0.149-0.11-0.346-0.171-0.585-0.171c-0.136,0-0.288,0.013-0.452,0.034l-0.061-0.563c0.679-0.116,1.394-0.213,2.129-0.294
			c0.729-0.077,1.48-0.114,2.252-0.114c0.325,0,0.674,0.014,1.036,0.041c0.365,0.027,0.717,0.077,1.068,0.154
			c0.347,0.075,0.682,0.178,0.993,0.311c0.314,0.134,0.593,0.313,0.825,0.526c0.231,0.215,0.425,0.473,0.563,0.781
			c0.14,0.302,0.211,0.664,0.211,1.08c0,0.442-0.067,0.834-0.198,1.178c-0.133,0.337-0.318,0.637-0.555,0.894
			c-0.236,0.262-0.509,0.483-0.823,0.673c-0.314,0.186-0.653,0.336-1.012,0.467v0.061c0.167,0.036,0.355,0.089,0.55,0.16
			c0.199,0.07,0.392,0.176,0.578,0.31c0.186,0.129,0.365,0.302,0.525,0.507c0.163,0.207,0.287,0.459,0.387,0.754l0.755,2.35
			c0.106,0.323,0.196,0.577,0.286,0.768c0.083,0.19,0.176,0.336,0.268,0.435c0.098,0.098,0.205,0.167,0.328,0.197
			c0.12,0.029,0.278,0.046,0.461,0.046l0.031,0.531c-0.126,0.029-0.269,0.056-0.425,0.077c-0.154,0.025-0.306,0.042-0.456,0.058
			c-0.153,0.013-0.285,0.024-0.405,0.036c-0.119,0.009-0.212,0.016-0.271,0.016c-0.218,0-0.414-0.027-0.587-0.077
			c-0.167-0.048-0.323-0.141-0.46-0.264c-0.139-0.124-0.258-0.296-0.366-0.5c-0.109-0.209-0.203-0.472-0.294-0.784l-0.728-2.502
			c-0.104-0.355-0.227-0.639-0.368-0.852c-0.144-0.21-0.324-0.377-0.539-0.487c-0.214-0.107-0.473-0.185-0.779-0.225
			c-0.304-0.037-0.673-0.063-1.104-0.076L216.531,37.69z"/>
		<path fill="#FFFFFF" d="M239.321,34.746c-0.071-0.377-0.179-0.695-0.336-0.965c-0.15-0.27-0.338-0.494-0.563-0.674
			c-0.229-0.177-0.483-0.312-0.766-0.394c-0.282-0.086-0.589-0.126-0.919-0.126c-0.324,0-0.625,0.037-0.921,0.115
			c-0.295,0.079-0.553,0.205-0.777,0.376c-0.229,0.172-0.405,0.394-0.539,0.658c-0.133,0.263-0.202,0.583-0.202,0.952
			c0,0.326,0.078,0.607,0.235,0.848c0.157,0.234,0.368,0.439,0.632,0.612c0.263,0.172,0.566,0.33,0.907,0.464
			c0.345,0.14,0.699,0.275,1.069,0.413c0.407,0.157,0.819,0.327,1.229,0.509c0.412,0.18,0.779,0.399,1.103,0.662
			c0.325,0.26,0.593,0.575,0.792,0.944c0.2,0.368,0.305,0.821,0.305,1.361c0,0.472-0.065,0.891-0.2,1.253
			c-0.132,0.361-0.32,0.678-0.554,0.949c-0.235,0.271-0.513,0.495-0.822,0.683c-0.317,0.18-0.653,0.33-1.016,0.445
			c-0.361,0.109-0.743,0.189-1.133,0.241c-0.394,0.046-0.781,0.073-1.163,0.073c-0.461,0-0.914-0.029-1.371-0.084
			c-0.454-0.055-0.905-0.134-1.36-0.237c-0.06-0.013-0.107-0.04-0.146-0.088c-0.036-0.042-0.06-0.09-0.069-0.136
			c-0.016-0.144-0.026-0.354-0.036-0.629c-0.014-0.279-0.03-0.56-0.037-0.849c-0.01-0.287-0.018-0.543-0.027-0.779
			c-0.008-0.232-0.01-0.37-0.01-0.408l0.513-0.052c0.05,0.412,0.158,0.766,0.32,1.065c0.171,0.306,0.385,0.548,0.636,0.744
			c0.255,0.194,0.553,0.339,0.884,0.433c0.331,0.094,0.686,0.137,1.072,0.137c0.343,0,0.677-0.036,0.996-0.116
			c0.321-0.077,0.606-0.206,0.855-0.381s0.45-0.396,0.601-0.673c0.15-0.271,0.229-0.604,0.229-0.995c0-0.322-0.08-0.596-0.238-0.82
			c-0.155-0.226-0.367-0.426-0.628-0.602c-0.262-0.176-0.567-0.329-0.904-0.466c-0.336-0.139-0.688-0.276-1.047-0.422
			c-0.411-0.167-0.823-0.335-1.231-0.534c-0.411-0.182-0.78-0.41-1.104-0.678c-0.326-0.264-0.589-0.59-0.791-0.967
			c-0.202-0.384-0.302-0.846-0.302-1.398c0-0.67,0.13-1.232,0.396-1.679c0.262-0.452,0.606-0.814,1.035-1.092
			c0.426-0.269,0.912-0.463,1.46-0.583c0.542-0.115,1.102-0.176,1.667-0.176c0.378,0,0.785,0.03,1.23,0.089
			c0.447,0.055,0.863,0.134,1.252,0.229c0.062,0.017,0.109,0.04,0.146,0.091c0.038,0.042,0.062,0.09,0.069,0.137
			c0.016,0.141,0.032,0.343,0.038,0.6c0.013,0.254,0.028,0.521,0.038,0.781c0.016,0.261,0.026,0.5,0.036,0.713
			c0.003,0.211,0.012,0.335,0.012,0.38L239.321,34.746z"/>
	</g>
</g>
</svg>
